<?xml version="1.0" encoding="UTF-8" standalone="no"?>
<!-- Created with Inkscape (http://www.inkscape.org/) -->

<svg
   width="512"
   height="512"
   viewBox="0 0 512 512"
   version="1.1"
   id="svg1"
   xml:space="preserve"
   inkscape:version="1.4.3 (0d15f75042, 2025-12-25)"
   sodipodi:docname="budsright.svg"
   xmlns:inkscape="http://www.inkscape.org/namespaces/inkscape"
   xmlns:sodipodi="http://sodipodi.sourceforge.net/DTD/sodipodi-0.dtd"
   xmlns="http://www.w3.org/2000/svg"
   xmlns:svg="http://www.w3.org/2000/svg"><sodipodi:namedview
     id="namedview1"
     pagecolor="#ffffff"
     bordercolor="#000000"
     borderopacity="0.25"
     inkscape:showpageshadow="2"
     inkscape:pageopacity="0.0"
     inkscape:pagecheckerboard="0"
     inkscape:deskcolor="#d1d1d1"
     inkscape:document-units="px"
     inkscape:zoom="0.84806799"
     inkscape:cx="106.71314"
     inkscape:cy="139.72936"
     inkscape:window-width="1646"
     inkscape:window-height="995"
     inkscape:window-x="0"
     inkscape:window-y="0"
     inkscape:window-maximized="1"
     inkscape:current-layer="g2" /><defs
     id="defs1" /><g
     inkscape:label="Capa 1"
     inkscape:groupmode="layer"
     id="layer1"><g
       id="g2"
       transform="translate(14.381024,-12.107413)"><g
         id="g5"
         transform="matrix(1.2825424,0,0,1.2825424,-54.885946,-70.342508)"><path
           d="M 300.188,125.813 A 252,252 0 0 1 305,130 l 2.305,2.02 c 15.245,14.216 23.828,33.846 24.656,54.472 0.465,23.065 -8.546,43.643 -23.961,60.508 -2.883,2.986 -5.83,5.898 -8.812,8.785 -3.446,3.488 -3.316,5.49 -3.333,10.3 l -0.02,3.934 -0.009,4.341 -0.02,4.553 q -0.022,4.91 -0.036,9.82 c -0.015,5.177 -0.04,10.354 -0.065,15.531 q -0.104,22.086 -0.182,44.17 -0.043,12.192 -0.106,24.383 -0.04,7.718 -0.056,15.434 -0.016,4.808 -0.047,9.615 a 941,941 0 0 0 -0.012,4.452 884,884 0 0 1 -0.03,6.09 l -0.013,3.439 c -0.351,4.273 -1.327,7.793 -3.759,11.34 -6.56,4.756 -14.71,5.267 -22.566,5.211 l -2.785,0.01 q -2.89,0.002 -5.78,-0.017 c -2.928,-0.016 -5.854,0 -8.781,0.02 q -2.828,-0.004 -5.654,-0.013 l -2.615,0.019 c -7.232,-0.083 -13.662,-1.203 -19.319,-5.917 -3.484,-4.355 -3.299,-8.803 -3.543,-14.157 l -0.126,-2.677 c -0.485,-11.046 -0.562,-22.096 -0.647,-33.15 l -0.063,-6.842 q -0.082,-8.898 -0.153,-17.794 -0.077,-9.122 -0.161,-18.243 A 49916,49916 0 0 1 219,294 l -3.066,1.88 -4.051,2.464 -2.013,1.237 c -14.292,8.658 -30.195,10.836 -46.433,6.919 -20.922,-6.368 -37.045,-18.47 -47.625,-37.75 -7.993,-15.398 -11.402,-33.311 -6.312,-50.375 6.768,-16.381 18.488,-28.67 34.184,-36.758 3.116,-2.176 4.505,-4.968 6.254,-8.242 C 160.264,155.181 174.246,141.762 192,131 l 1.756,-1.08 c 31.351,-19.174 75.19,-28.284 106.432,-4.107 M 217,146 l -1.903,0.879 C 205.12,151.583 197.075,157.528 189,165 l -2.527,2.246 c -11.44,10.657 -18.766,24.999 -19.563,40.691 0.53,18.086 11.45,33.088 24.028,45.247 8.213,7.233 16.843,11.519 27.93,11.164 C 241.894,261.792 267.127,250.77 284,235 l 1.898,-1.66 C 295.616,224.392 301.339,213.535 305,201 l 0.61,-1.996 C 308.309,185.155 304.577,171.574 297,160 289.673,149.574 280.728,140.906 268,138 l -2.332,-0.55 C 248.912,134.628 232.111,138.952 217,146 m -77,71 q -1.224,2.623 -2.437,5.25 l -1.372,2.953 c -3.316,7.785 -3.32,16.352 -0.629,24.36 5.649,13.63 14.526,23.302 28.028,29.507 6.118,2.36 11.884,3.208 18.41,2.93 -1.177,-3.53 -2.174,-4.11 -5.125,-6.25 C 169.47,270.37 163.976,264.072 159,256.438 l -1.566,-2.393 C 149.795,242.203 144.88,230.778 142,217 Z m 119.75,61.313 c -4.525,2.138 -9.04,3.999 -13.75,5.687 -0.945,6.367 -1.142,12.559 -1.13,18.99 l -0.005,3.25 q -0.004,5.284 0.002,10.569 l -0.003,7.357 q -0.002,7.69 0.006,15.38 0.006,9.88 -0.004,19.76 -0.005,7.586 0,15.17 0,3.645 -0.002,7.291 -0.003,5.075 0.007,10.149 l -0.007,3.068 0.009,2.774 0.001,2.423 c -0.073,1.84 -0.073,1.84 1.126,2.819 1.623,0.1 3.25,0.13 4.875,0.133 l 2.984,0.004 3.141,-0.012 3.14,0.012 2.985,-0.004 2.758,-0.004 c 2.102,0.107 2.102,0.107 3.117,-1.129 a 82,82 0 0 0 0.12,-4.904 l 0.004,-3.217 -0.01,-3.559 v -3.724 q -10e-4,-5.07 -0.013,-10.14 -0.007,-5.294 -0.008,-10.587 -0.005,-10.03 -0.021,-20.06 -0.016,-11.415 -0.022,-22.83 Q 269.034,299.489 269,276 c -4.095,0 -5.66,0.574 -9.25,2.313"
           id="path1" /><ellipse
           style="fill:#000000;fill-opacity:1;stroke-linejoin:round;stroke-miterlimit:0"
           id="path4"
           ry="15.656428"
           rx="24.803072"
           cy="-294.28665"
           cx="-124.49364"
           transform="rotate(147.53296)" /></g></g></g></svg>
