<?xml version="1.0" encoding="UTF-8" standalone="no"?>
<!-- Created with Inkscape (http://www.inkscape.org/) -->

<svg
   width="512"
   height="512"
   viewBox="0 0 512 512"
   version="1.1"
   id="svg1"
   xml:space="preserve"
   inkscape:version="1.4.3 (0d15f75042, 2025-12-25)"
   sodipodi:docname="health.svg"
   xmlns:inkscape="http://www.inkscape.org/namespaces/inkscape"
   xmlns:sodipodi="http://sodipodi.sourceforge.net/DTD/sodipodi-0.dtd"
   xmlns="http://www.w3.org/2000/svg"
   xmlns:svg="http://www.w3.org/2000/svg"><sodipodi:namedview
     id="namedview1"
     pagecolor="#ffffff"
     bordercolor="#000000"
     borderopacity="0.25"
     inkscape:showpageshadow="2"
     inkscape:pageopacity="0.0"
     inkscape:pagecheckerboard="0"
     inkscape:deskcolor="#d1d1d1"
     inkscape:document-units="px"
     inkscape:zoom="1.0148621"
     inkscape:cx="197.56379"
     inkscape:cy="222.19768"
     inkscape:window-width="1646"
     inkscape:window-height="995"
     inkscape:window-x="0"
     inkscape:window-y="0"
     inkscape:window-maximized="1"
     inkscape:current-layer="layer1" /><defs
     id="defs1" /><g
     inkscape:label="Capa 1"
     inkscape:groupmode="layer"
     id="layer1"><circle
       style="fill:#86c100;fill-opacity:1;stroke:none;stroke-width:0"
       id="path1"
       cx="256.06485"
       cy="256.03558"
       r="252" /><path
       d="m 248.86351,165.33241 8.46763,11.68532 8.46761,-11.68532 c 14.1127,-19.53197 36.80593,-31.10439 60.91042,-31.10439 41.49134,0 75.13602,33.64469 75.13602,75.13603 v 1.46771 c 0,63.33781 -78.97467,136.8932 -120.18376,168.33629 -6.9999,5.30638 -15.58042,7.95957 -24.33029,7.95957 -8.74988,0 -17.38685,-2.59673 -24.3303,-7.95957 C 191.79176,347.72496 112.81708,274.16957 112.81708,210.83176 v -1.46771 c 0,-41.49134 33.64468,-75.13603 75.13602,-75.13603 24.10449,0 46.79771,11.57242 60.91041,31.10439 z"
       id="path1-9"
       style="fill:#ffffff;stroke-width:0.564508" /></g></svg>
