<?xml version="1.0" encoding="UTF-8" standalone="no"?>
<!-- Created with Inkscape (http://www.inkscape.org/) -->

<svg
   width="512"
   height="512"
   viewBox="0 0 512 512"
   version="1.1"
   id="svg1"
   xml:space="preserve"
   inkscape:version="1.4.3 (0d15f75042, 2025-12-25)"
   sodipodi:docname="maintanance.svg"
   xmlns:inkscape="http://www.inkscape.org/namespaces/inkscape"
   xmlns:sodipodi="http://sodipodi.sourceforge.net/DTD/sodipodi-0.dtd"
   xmlns="http://www.w3.org/2000/svg"
   xmlns:svg="http://www.w3.org/2000/svg"><sodipodi:namedview
     id="namedview1"
     pagecolor="#ffffff"
     bordercolor="#000000"
     borderopacity="0.25"
     inkscape:showpageshadow="2"
     inkscape:pageopacity="0.0"
     inkscape:pagecheckerboard="0"
     inkscape:deskcolor="#d1d1d1"
     inkscape:document-units="px"
     inkscape:zoom="0.96815732"
     inkscape:cx="229.81802"
     inkscape:cy="174.04196"
     inkscape:window-width="1646"
     inkscape:window-height="995"
     inkscape:window-x="0"
     inkscape:window-y="0"
     inkscape:window-maximized="1"
     inkscape:current-layer="layer1" /><defs
     id="defs1" /><g
     inkscape:label="Capa 1"
     inkscape:groupmode="layer"
     id="layer1"><circle
       style="fill:#665e85;fill-opacity:1;stroke-width:0"
       id="path1"
       cx="255.03931"
       cy="255.26227"
       r="252" /><path
       d="m 222.26662,161.69067 v 17.19035 h 68.76139 v -17.19035 c 0,-1.89093 -1.54713,-3.43807 -3.43807,-3.43807 h -61.88525 c -1.89094,0 -3.43807,1.54714 -3.43807,3.43807 z m -20.62841,17.19035 v -17.19035 c 0,-13.27954 10.78694,-24.06648 24.06648,-24.06648 h 61.88525 c 13.27954,0 24.06648,10.78694 24.06648,24.06648 v 17.19035 h 12.07622 c 5.45794,0 10.70099,2.19177 14.56882,6.0596 l 22.30447,22.30447 c 3.86783,3.86783 6.0596,9.11088 6.0596,14.56882 v 32.70463 h -58.44718 v -6.87614 c 0,-5.71579 -4.59841,-10.31421 -10.3142,-10.31421 -5.71579,0 -10.31421,4.59842 -10.31421,10.31421 v 6.87614 h -61.88525 v -6.87614 c 0,-5.71579 -4.59842,-10.31421 -10.31421,-10.31421 -5.71579,0 -10.3142,4.59842 -10.3142,10.31421 v 6.87614 H 146.6291 v -32.70463 c 0,-5.45794 2.19177,-10.70099 6.0596,-14.56882 l 22.30447,-22.30447 c 3.86783,-3.86783 9.11089,-6.0596 14.56882,-6.0596 z M 146.6291,316.40379 v -41.25683 h 58.44718 v 6.87613 c 0,5.71579 4.59841,10.31421 10.3142,10.31421 5.71579,0 10.31421,-4.59842 10.31421,-10.31421 v -6.87613 h 61.88525 v 6.87613 c 0,5.71579 4.59842,10.31421 10.31421,10.31421 5.71579,0 10.3142,-4.59842 10.3142,-10.31421 v -6.87613 h 58.44718 v 41.25683 c 0,15.17048 -12.33407,27.50455 -27.50455,27.50455 H 174.13365 c -15.17048,0 -27.50455,-12.33407 -27.50455,-27.50455 z"
       id="path1-3"
       style="fill:#ffffff;stroke-width:0.429759" /></g></svg>
