<?xml version="1.0" encoding="UTF-8" standalone="no"?>
<!-- Created with Inkscape (http://www.inkscape.org/) -->

<svg
   width="512"
   height="512"
   viewBox="0 0 512 512"
   version="1.1"
   id="svg1"
   xml:space="preserve"
   inkscape:version="1.4.3 (0d15f75042, 2025-12-25)"
   sodipodi:docname="start.svg"
   inkscape:export-filename=".png"
   inkscape:export-xdpi="96"
   inkscape:export-ydpi="96"
   xmlns:inkscape="http://www.inkscape.org/namespaces/inkscape"
   xmlns:sodipodi="http://sodipodi.sourceforge.net/DTD/sodipodi-0.dtd"
   xmlns="http://www.w3.org/2000/svg"
   xmlns:svg="http://www.w3.org/2000/svg"><sodipodi:namedview
     id="namedview1"
     pagecolor="#ffffff"
     bordercolor="#000000"
     borderopacity="0.25"
     inkscape:showpageshadow="2"
     inkscape:pageopacity="0.0"
     inkscape:pagecheckerboard="0"
     inkscape:deskcolor="#d1d1d1"
     inkscape:document-units="px"
     inkscape:zoom="1.262516"
     inkscape:cx="145.74073"
     inkscape:cy="259.40265"
     inkscape:window-width="1646"
     inkscape:window-height="995"
     inkscape:window-x="0"
     inkscape:window-y="0"
     inkscape:window-maximized="1"
     inkscape:current-layer="layer1" /><defs
     id="defs1" /><g
     inkscape:label="Capa 1"
     inkscape:groupmode="layer"
     id="layer1"><circle
       style="fill:#2f75ff;stroke-width:0;fill-opacity:1"
       id="path1"
       cx="255.69762"
       cy="255.89154"
       r="252" /><path
       d="m 261.64896,152.30438 c -4.4876,-4.15924 -11.41966,-4.15924 -15.87078,0 l -81.72539,75.88787 c -3.50252,3.28361 -4.67003,8.35496 -2.91877,12.80607 1.75126,4.45112 6.01995,7.40637 10.83591,7.40637 h 5.83753 v 64.21281 c 0,12.87904 10.47107,23.35011 23.35011,23.35011 h 105.07551 c 12.87905,0 23.35011,-10.47107 23.35011,-23.35011 v -64.21281 h 5.83753 c 4.81596,0 9.12114,-2.95525 10.8724,-7.40637 1.75126,-4.45111 0.58375,-9.55895 -2.91877,-12.80607 z M 247.8578,265.91727 h 11.67506 c 9.6684,0 17.51258,7.84418 17.51258,17.51259 l 0.15464,52.5453 -47.03149,0.1433 0.17663,-52.6886 c 0.0324,-9.66836 7.84417,-17.51259 17.51258,-17.51259 z"
       id="path1-2"
       style="fill:#ffffff;stroke-width:0.364846"
       sodipodi:nodetypes="cccsscsssscssccsssccss" /><rect
       style="fill:#2f75ff;stroke-width:5.00636;stroke-miterlimit:0;fill-opacity:1"
       id="rect1"
       width="47.012577"
       height="14.287077"
       x="230.17137"
       y="330.88168" /></g></svg>
