<?xml version="1.0" encoding="UTF-8" standalone="no"?>
<!-- Created with Inkscape (http://www.inkscape.org/) -->

<svg
   width="512"
   height="512"
   viewBox="0 0 512 512"
   version="1.1"
   id="svg1"
   xml:space="preserve"
   inkscape:version="1.4.3 (0d15f75042, 2025-12-25)"
   sodipodi:docname="wallpaper.svg"
   inkscape:export-filename="wallpaper.png"
   inkscape:export-xdpi="96"
   inkscape:export-ydpi="96"
   xmlns:inkscape="http://www.inkscape.org/namespaces/inkscape"
   xmlns:sodipodi="http://sodipodi.sourceforge.net/DTD/sodipodi-0.dtd"
   xmlns="http://www.w3.org/2000/svg"
   xmlns:svg="http://www.w3.org/2000/svg"><sodipodi:namedview
     id="namedview1"
     pagecolor="#ffffff"
     bordercolor="#000000"
     borderopacity="0.25"
     inkscape:showpageshadow="2"
     inkscape:pageopacity="0.0"
     inkscape:pagecheckerboard="0"
     inkscape:deskcolor="#d1d1d1"
     inkscape:document-units="px"
     inkscape:zoom="1.2580061"
     inkscape:cx="224.95916"
     inkscape:cy="251.58861"
     inkscape:window-width="1646"
     inkscape:window-height="995"
     inkscape:window-x="0"
     inkscape:window-y="0"
     inkscape:window-maximized="1"
     inkscape:current-layer="layer1" /><defs
     id="defs1" /><g
     inkscape:label="Capa 1"
     inkscape:groupmode="layer"
     id="layer1"><circle
       style="fill:#ff687f;stroke-width:0;fill-opacity:1"
       id="path1"
       cx="258.33115"
       cy="255.53377"
       r="252" /><path
       d="m 167.4488,124.59557 c -20.45562,0 -37.08667,16.63105 -37.08667,37.08667 v 185.43331 c 0,20.45561 16.63105,37.08666 37.08667,37.08666 h 185.43331 c 20.45561,0 37.08666,-16.63105 37.08666,-37.08666 V 161.68224 c 0,-20.45562 -16.63105,-37.08667 -37.08666,-37.08667 z m 37.08666,46.35834 c 15.3562,0 27.81499,12.45879 27.81499,27.81499 0,15.3562 -12.45879,27.81499 -27.81499,27.81499 -15.3562,0 -27.81499,-12.45879 -27.81499,-27.81499 0,-15.3562 12.45879,-27.81499 27.81499,-27.81499 z m 83.44499,64.90166 c 4.86763,0 9.32962,2.5497 11.87932,6.66399 l 50.99416,83.445 c 2.60766,4.28815 2.72356,9.6773 0.28974,14.08134 -2.43381,4.40404 -7.1276,7.06965 -12.16905,7.06965 H 181.3563 c -5.15737,0 -9.96704,-2.8974 -12.34291,-7.47528 -2.37586,-4.57789 -2.02818,-10.14088 0.92716,-14.37109 l 32.45083,-46.35832 c 2.60767,-3.70867 6.83786,-5.91069 11.41575,-5.91069 4.57789,0 8.80808,2.20202 11.41574,5.91069 l 15.29824,21.90431 35.58001,-58.23765 c 2.54971,-4.11431 7.0117,-6.66401 11.87933,-6.66401 z"
       id="path1-2"
       style="fill:#ffffff;stroke-width:0.579479" /></g></svg>
