<?xml version="1.0" encoding="UTF-8" standalone="no"?>
<!-- Created with Inkscape (http://www.inkscape.org/) -->

<svg
   width="512"
   height="512"
   viewBox="0 0 512 512"
   version="1.1"
   id="svg1"
   inkscape:version="1.4.3 (0d15f75042, 2025-12-25)"
   sodipodi:docname="wifi.svg"
   xml:space="preserve"
   inkscape:export-filename="BookOS/svgs-pngs/wifi.png"
   inkscape:export-xdpi="96"
   inkscape:export-ydpi="96"
   xmlns:inkscape="http://www.inkscape.org/namespaces/inkscape"
   xmlns:sodipodi="http://sodipodi.sourceforge.net/DTD/sodipodi-0.dtd"
   xmlns="http://www.w3.org/2000/svg"
   xmlns:svg="http://www.w3.org/2000/svg"><sodipodi:namedview
     id="namedview1"
     pagecolor="#ffffff"
     bordercolor="#000000"
     borderopacity="0.25"
     inkscape:showpageshadow="2"
     inkscape:pageopacity="0.0"
     inkscape:pagecheckerboard="0"
     inkscape:deskcolor="#d1d1d1"
     inkscape:document-units="px"
     inkscape:zoom="0.91091903"
     inkscape:cx="21.955848"
     inkscape:cy="143.26191"
     inkscape:window-width="1646"
     inkscape:window-height="995"
     inkscape:window-x="0"
     inkscape:window-y="0"
     inkscape:window-maximized="1"
     inkscape:current-layer="layer1" /><defs
     id="defs1"><inkscape:path-effect
       effect="fillet_chamfer"
       id="path-effect7"
       is_visible="true"
       lpeversion="1"
       nodesatellites_param="F,0,0,1,0,190.30861,0,1 @ F,0,0,1,0,0,0,1 @ F,0,0,1,0,1.9030861,0,1 @ F,0,0,1,0,1.9030861,0,1"
       radius="1.9030861"
       unit="px"
       method="auto"
       mode="F"
       chamfer_steps="1"
       flexible="false"
       use_knot_distance="true"
       apply_no_radius="true"
       apply_with_radius="true"
       only_selected="false"
       hide_knots="false" /><inkscape:path-effect
       effect="fillet_chamfer"
       id="path-effect6"
       is_visible="true"
       lpeversion="1"
       nodesatellites_param="F,0,0,1,0,0,0,1 @ F,0,0,1,0,64.719258,0,1 @ F,0,0,1,0,75.330016,0,1 @ F,0,0,1,0,0,0,1"
       radius="0"
       unit="px"
       method="auto"
       mode="F"
       chamfer_steps="1"
       flexible="false"
       use_knot_distance="true"
       apply_no_radius="true"
       apply_with_radius="true"
       only_selected="false"
       hide_knots="false" /><inkscape:path-effect
       effect="fillet_chamfer"
       id="path-effect5"
       is_visible="true"
       lpeversion="1"
       nodesatellites_param="F,0,0,1,0,0,0,1 @ F,0,0,1,0,0,0,1 @ F,0,0,1,0,0,0,1 | F,0,0,1,0,0,0,1 @ F,0,0,1,0,0,0,1 @ F,0,0,1,0,0,0,1"
       radius="0"
       unit="px"
       method="auto"
       mode="F"
       chamfer_steps="1"
       flexible="false"
       use_knot_distance="true"
       apply_no_radius="true"
       apply_with_radius="true"
       only_selected="false"
       hide_knots="false" /><inkscape:path-effect
       effect="mirror_symmetry"
       start_point="401.33556,283.07831"
       end_point="401.33556,306.72976"
       center_point="401.33556,294.90404"
       id="path-effect4"
       is_visible="true"
       lpeversion="1.2"
       lpesatellites=""
       mode="free"
       discard_orig_path="false"
       fuse_paths="false"
       oposite_fuse="false"
       split_items="false"
       split_open="false"
       link_styles="false" /></defs><g
     inkscape:label="Capa 1"
     inkscape:groupmode="layer"
     id="layer1"><circle
       style="fill:#2f75ff;stroke-width:0;fill-opacity:1"
       id="path1"
       cx="254.74557"
       cy="255.41533"
       r="252"
       inkscape:highlight-color="#ee3b3b" /><path
       d="m 260.40654,169.8759 c -55.53373,0 -105.81344,21.99356 -142.77484,57.79419 -7.75885,7.51445 -20.160764,7.33118 -27.614144,-0.42766 -7.45338,-7.75884 -7.33118,-20.16076 0.42765,-27.61413 43.926024,-42.64306 103.919564,-68.85205 169.961334,-68.85205 66.04176,0 126.0353,26.20899 170.02243,68.85205 7.75882,7.51447 7.94211,19.91639 0.42764,27.61413 -7.51446,7.69774 -19.91639,7.94211 -27.61413,0.42766 C 366.21999,191.86946 315.94028,169.8759 260.40654,169.8759 Z M 231.0818,375.14911 c 0,-16.18971 13.13503,-29.32474 29.32474,-29.32474 16.1897,0 29.32475,13.13503 29.32475,29.32474 0,16.1897 -13.13505,29.32475 -29.32475,29.32475 -16.18971,0 -29.32474,-13.13505 -29.32474,-29.32475 z m -43.98713,-64.63663 c -7.1479,8.1254 -19.48873,8.85853 -27.61413,1.71061 -8.1254,-7.1479 -8.85851,-19.48873 -1.71061,-27.61413 25.04822,-28.34724 61.76525,-46.30865 102.63661,-46.30865 40.87137,0 77.58838,17.96141 102.6366,46.30865 7.14792,8.1254 6.35371,20.46623 -1.71061,27.61413 -8.0643,7.14792 -20.46623,6.35371 -27.61413,-1.71061 -17.96141,-20.34403 -44.1093,-33.11252 -73.31186,-33.11252 -29.20255,0 -55.35046,12.76849 -73.31187,33.11252 z"
       id="path1-2"
       style="stroke-width:0.610932;fill:#ffffff" /></g></svg>
