<svg width="512" height="512" viewBox="0 0 512 512" fill="none" xmlns="http://www.w3.org/2000/svg">
<rect width="512" height="512" rx="80" fill="#353941"/>
<path d="M299.991 92.9888C306.723 85.5664 318.277 84.061 327.576 89.4296L364.159 110.551C373.457 115.919 377.931 126.678 374.869 136.22L360.577 181.458C367.218 189.877 372.745 198.952 377.075 208.406L425.997 219.457C436.394 221.792 444.074 230.811 444.356 241.061L445.507 281.308C445.789 291.557 438.645 300.117 428.329 301.879L380.039 310.219C378.141 314.778 375.871 319.275 373.323 323.688C370.775 328.101 367.955 332.28 365.017 336.238L381.967 382.321C385.599 392.136 381.664 402.625 372.741 407.484L337.311 426.61C328.327 431.434 316.643 429.349 309.422 421.512L275.39 384.671C264.977 385.612 254.387 385.306 243.804 383.857L211.866 418.831C205.04 426.275 193.518 427.724 184.281 422.39L147.698 401.269C138.4 395.901 133.926 385.142 136.988 375.6L151.308 330.454C144.667 322.036 139.201 312.996 134.81 303.507L85.7051 292.349C75.3077 290.014 67.6274 280.995 67.3457 270.746L66.1942 230.499C65.9125 220.249 73.0569 211.689 83.3727 209.927L131.757 201.565C133.655 197.007 135.925 192.51 138.473 188.097C141.021 183.684 143.841 179.505 146.779 175.546L129.829 129.463C126.197 119.649 130.132 109.16 139.054 104.301L174.485 85.1745C183.502 80.2938 195.153 82.4356 202.374 90.2725L236.406 127.114C246.819 126.172 257.409 126.479 267.992 127.928L299.991 92.9888ZM229.397 301.723C256.502 317.22 290.22 309.254 304.723 283.852C319.226 258.45 309.076 225.311 281.971 209.814C254.865 194.318 221.147 202.283 206.645 227.685C192.142 253.087 202.291 286.227 229.397 301.723Z" fill="#B0B0B0"/>
</svg>
