<?xml version="1.0" encoding="UTF-8" standalone="no"?>
<!-- Created with Inkscape (http://www.inkscape.org/) -->

<svg
   width="512"
   height="512"
   viewBox="0 0 512 512"
   version="1.1"
   id="svg1"
   xml:space="preserve"
   inkscape:version="1.4.3 (0d15f75042, 2025-12-25)"
   sodipodi:docname="accounts.svg"
   xmlns:inkscape="http://www.inkscape.org/namespaces/inkscape"
   xmlns:sodipodi="http://sodipodi.sourceforge.net/DTD/sodipodi-0.dtd"
   xmlns="http://www.w3.org/2000/svg"
   xmlns:svg="http://www.w3.org/2000/svg"><sodipodi:namedview
     id="namedview1"
     pagecolor="#ffffff"
     bordercolor="#000000"
     borderopacity="0.25"
     inkscape:showpageshadow="2"
     inkscape:pageopacity="0.0"
     inkscape:pagecheckerboard="0"
     inkscape:deskcolor="#d1d1d1"
     inkscape:document-units="px"
     inkscape:zoom="1.0825195"
     inkscape:cx="244.79928"
     inkscape:cy="264.66035"
     inkscape:window-width="1646"
     inkscape:window-height="995"
     inkscape:window-x="0"
     inkscape:window-y="0"
     inkscape:window-maximized="1"
     inkscape:current-layer="layer1" /><defs
     id="defs1" /><g
     inkscape:label="Capa 1"
     inkscape:groupmode="layer"
     id="layer1"><circle
       style="fill:#2f75ff;fill-opacity:1;stroke-width:0"
       id="path1"
       cx="257.47046"
       cy="255.25485"
       r="252" /><path
       d="m 159.8257,241.45885 c 6.77429,-47.36904 47.57279,-83.78719 96.82641,-83.78719 26.99526,0 51.44382,10.9509 69.16901,28.62517 0.10189,0.10189 0.20373,0.20374 0.3056,0.3056 l 3.87102,3.66729 h -24.3976 c -9.0154,0 -16.29904,7.28363 -16.29904,16.29902 0,9.0154 7.28364,16.29903 16.29904,16.29903 h 65.1961 c 9.0154,0 16.29903,-7.28363 16.29903,-16.29903 v -65.1961 c 0,-9.0154 -7.28363,-16.29904 -16.29903,-16.29904 -9.01539,0 -16.29902,7.28364 -16.29902,16.29904 v 27.199 l -5.7556,-5.44998 c -23.58265,-23.48079 -56.1807,-38.04806 -92.08951,-38.04806 -65.70544,0 -120.05253,48.59148 -129.06792,111.80115 -1.27336,8.91353 4.88971,17.16491 13.80325,18.43828 8.91352,1.27336 17.1649,-4.94065 18.43826,-13.80325 z m 225.89434,32.59805 c 1.27335,-8.91353 -4.94064,-17.16491 -13.80323,-18.43827 -8.8626,-1.27336 -17.16492,4.94065 -18.43828,13.80325 -6.77429,47.36904 -47.5728,83.78717 -96.82642,83.78717 -26.99525,0 -51.4438,-10.95091 -69.16899,-28.62515 -0.10189,-0.1019 -0.20374,-0.20374 -0.3056,-0.30562 l -3.87103,-3.66727 h 24.3976 c 9.01541,0 16.29905,-7.28363 16.29905,-16.29903 0,-9.01541 -7.28364,-16.29902 -16.29905,-16.29902 l -65.14517,0.051 c -4.32942,0 -8.50604,1.73176 -11.56212,4.83877 -3.05607,3.107 -4.78783,7.2327 -4.7369,11.61306 l 0.50934,64.68677 c 0.051,9.0154 7.43643,16.24809 16.45183,16.14622 9.0154,-0.10189 16.2481,-7.43643 16.14623,-16.45183 l -0.20374,-26.23126 5.44999,5.14439 c 23.58266,23.48076 56.12977,38.04802 92.03856,38.04802 65.70546,0 120.05253,-48.59148 129.06793,-111.80116 z"
       id="path1-2"
       style="fill:#ffffff;stroke-width:0.509345" /></g></svg>
