<?xml version="1.0" encoding="UTF-8" standalone="no"?>
<!-- Created with Inkscape (http://www.inkscape.org/) -->

<svg
   width="512"
   height="512"
   viewBox="0 0 512 512"
   version="1.1"
   id="svg1"
   xml:space="preserve"
   inkscape:version="1.4.3 (0d15f75042, 2025-12-25)"
   sodipodi:docname="advanced.svg"
   xmlns:inkscape="http://www.inkscape.org/namespaces/inkscape"
   xmlns:sodipodi="http://sodipodi.sourceforge.net/DTD/sodipodi-0.dtd"
   xmlns="http://www.w3.org/2000/svg"
   xmlns:svg="http://www.w3.org/2000/svg"><sodipodi:namedview
     id="namedview1"
     pagecolor="#ffffff"
     bordercolor="#000000"
     borderopacity="0.25"
     inkscape:showpageshadow="2"
     inkscape:pageopacity="0.0"
     inkscape:pagecheckerboard="0"
     inkscape:deskcolor="#d1d1d1"
     inkscape:document-units="px"
     inkscape:zoom="0.77806091"
     inkscape:cx="240.34108"
     inkscape:cy="234.55747"
     inkscape:window-width="1646"
     inkscape:window-height="995"
     inkscape:window-x="0"
     inkscape:window-y="0"
     inkscape:window-maximized="1"
     inkscape:current-layer="layer1" /><defs
     id="defs1" /><g
     inkscape:label="Capa 1"
     inkscape:groupmode="layer"
     id="layer1"><circle
       style="fill:#fab800;fill-opacity:1;stroke:none;stroke-width:0"
       id="path1"
       cx="256.2327"
       cy="255.29507"
       r="252" /><path
       d="m 372.37086,167.58008 c 3.82416,-3.82416 10.21453,-2.86811 12.12661,2.16367 3.42162,8.90627 5.28338,18.61762 5.28338,28.73152 0,44.48102 -36.02761,80.50863 -80.50863,80.50863 -8.80563,0 -17.30936,-1.4089 -25.25958,-4.02543 l -94.04415,94.04415 c -14.13933,14.13932 -37.08429,14.13932 -51.22361,0 -14.13934,-14.13933 -14.13934,-37.0843 0,-51.22362 l 94.04414,-94.04415 c -2.61653,-7.95023 -4.02543,-16.40363 -4.02543,-25.25958 0,-44.48102 36.02761,-80.50863 80.50863,-80.50863 10.1139,0 19.82525,1.86176 28.73152,5.28338 5.03179,1.91207 5.93751,8.30245 2.16366,12.12661 l -44.63197,44.63197 c -1.50953,1.50954 -2.36494,3.57257 -2.36494,5.68593 v 20.8316 c 0,4.42798 3.62289,8.05086 8.05087,8.05086 h 20.83161 c 2.11334,0 4.17638,-0.8554 5.68591,-2.36493 z"
       id="path1-6"
       style="stroke-width:0.503179;fill:#ffffff" /></g></svg>
