<?xml version="1.0" encoding="UTF-8" standalone="no"?>
<!-- Created with Inkscape (http://www.inkscape.org/) -->

<svg
   width="512"
   height="512"
   viewBox="0 0 512 512"
   version="1.1"
   id="svg1"
   inkscape:version="1.4.3 (0d15f75042, 2025-12-25)"
   sodipodi:docname="battery.svg"
   inkscape:export-filename="battery.png"
   inkscape:export-xdpi="96"
   inkscape:export-ydpi="96"
   xmlns:inkscape="http://www.inkscape.org/namespaces/inkscape"
   xmlns:sodipodi="http://sodipodi.sourceforge.net/DTD/sodipodi-0.dtd"
   xmlns="http://www.w3.org/2000/svg"
   xmlns:svg="http://www.w3.org/2000/svg">
  <sodipodi:namedview
     id="namedview1"
     pagecolor="#ffffff"
     bordercolor="#000000"
     borderopacity="0.25"
     inkscape:showpageshadow="2"
     inkscape:pageopacity="0.0"
     inkscape:pagecheckerboard="0"
     inkscape:deskcolor="#d1d1d1"
     inkscape:document-units="px"
     inkscape:zoom="0.78802639"
     inkscape:cx="234.76371"
     inkscape:cy="255.7021"
     inkscape:window-width="1646"
     inkscape:window-height="995"
     inkscape:window-x="0"
     inkscape:window-y="0"
     inkscape:window-maximized="1"
     inkscape:current-layer="layer1" />
  <defs
     id="defs1">
    <inkscape:path-effect
       effect="fillet_chamfer"
       id="path-effect3"
       is_visible="true"
       lpeversion="1"
       nodesatellites_param="F,0,0,1,0,5.8656573,0,1 @ F,0,0,1,0,5.8656573,0,1 @ F,0,0,1,0,5.8656573,0,1 @ F,0,0,1,0,5.8656573,0,1"
       radius="4"
       unit="px"
       method="auto"
       mode="F"
       chamfer_steps="1"
       flexible="false"
       use_knot_distance="true"
       apply_no_radius="true"
       apply_with_radius="true"
       only_selected="false"
       hide_knots="false" />
    <inkscape:path-effect
       effect="fillet_chamfer"
       id="path-effect1"
       nodesatellites_param="F,0,0,1,0,26.520197,0,1 @ F,0,0,1,0,26.520197,0,1 @ F,0,0,1,0,26.520197,0,1 @ F,0,0,1,0,26.520197,0,1"
       is_visible="true"
       lpeversion="1"
       radius="16"
       unit="px"
       method="auto"
       mode="F"
       chamfer_steps="1"
       flexible="false"
       use_knot_distance="true"
       apply_no_radius="true"
       apply_with_radius="true"
       only_selected="false"
       hide_knots="false" />
  </defs>
  <g
     inkscape:label="Capa 1"
     inkscape:groupmode="layer"
     id="layer1">
    <circle
       style="fill:#86c100;fill-opacity:1;stroke:none;stroke-width:0"
       id="path1"
       cx="254.96257"
       cy="256.30652"
       r="252" />
    <g
       id="g3"
       transform="matrix(1.2559411,0,0,1.5128404,-112.04732,-199.36794)">
      <g
         id="g4"
         transform="translate(0,5.0328893)">
        <path
           style="fill:#ffffff;fill-opacity:1;stroke-width:5;stroke-miterlimit:0"
           id="rect1"
           width="174.57765"
           height="257.04684"
           x="173.50662"
           y="125.31034"
           rx="0"
           ry="0"
           inkscape:path-effect="#path-effect1"
           sodipodi:type="rect"
           d="m 200.02682,125.31034 121.53726,0 a 26.520197,26.520197 45 0 1 26.52019,26.5202 v 204.00645 a 26.520197,26.520197 135 0 1 -26.52019,26.5202 H 200.02682 a 26.520197,26.520197 45 0 1 -26.5202,-26.5202 V 151.83054 a 26.520197,26.520197 135 0 1 26.5202,-26.5202 z"
           transform="matrix(0.60331377,0,0,0.60331377,138.08024,151.67583)" />
        <path
           style="fill:#ffffff;fill-opacity:1;stroke-width:5;stroke-miterlimit:0"
           id="rect3"
           width="47.716461"
           height="15.905486"
           x="278.07178"
           y="199.8241"
           ry="0"
           inkscape:path-effect="#path-effect3"
           sodipodi:type="rect"
           rx="0"
           d="m 283.93743,199.8241 h 35.98515 a 5.8656573,5.8656573 45 0 1 5.86566,5.86565 v 4.17418 a 5.8656573,5.8656573 135 0 1 -5.86566,5.86565 l -35.98515,0 a 5.8656573,5.8656573 45 0 1 -5.86565,-5.86565 v -4.17418 a 5.8656573,5.8656573 135 0 1 5.86565,-5.86565 z"
           transform="matrix(0.64438128,0,0,0.72413792,101.10009,68.182423)" />
      </g>
    </g>
  </g>
</svg>
