<?xml version="1.0" encoding="UTF-8" standalone="no"?>
<!-- Created with Inkscape (http://www.inkscape.org/) -->

<svg
   width="512"
   height="512"
   viewBox="0 0 512 512"
   version="1.1"
   id="svg1"
   xml:space="preserve"
   inkscape:version="1.4.3 (0d15f75042, 2025-12-25)"
   sodipodi:docname="brightness.svg"
   xmlns:inkscape="http://www.inkscape.org/namespaces/inkscape"
   xmlns:sodipodi="http://sodipodi.sourceforge.net/DTD/sodipodi-0.dtd"
   xmlns="http://www.w3.org/2000/svg"
   xmlns:svg="http://www.w3.org/2000/svg"><sodipodi:namedview
     id="namedview1"
     pagecolor="#ffffff"
     bordercolor="#000000"
     borderopacity="0.25"
     inkscape:showpageshadow="2"
     inkscape:pageopacity="0.0"
     inkscape:pagecheckerboard="0"
     inkscape:deskcolor="#d1d1d1"
     inkscape:document-units="px"
     inkscape:zoom="1.0164905"
     inkscape:cx="215.44716"
     inkscape:cy="225.77682"
     inkscape:window-width="1646"
     inkscape:window-height="995"
     inkscape:window-x="0"
     inkscape:window-y="0"
     inkscape:window-maximized="1"
     inkscape:current-layer="layer1" /><defs
     id="defs1" /><g
     inkscape:label="Capa 1"
     inkscape:groupmode="layer"
     id="layer1"><circle
       style="fill:#afdd00;fill-opacity:1;stroke-width:0"
       id="path1"
       cx="256.90952"
       cy="253.69975"
       r="252" /><path
       d="m 261.47776,99.299377 c 4.35351,0 8.44789,2.280413 10.67647,6.063823 l 28.76429,47.99231 54.31528,-13.63065 c 4.24986,-1.03655 8.75885,0.20731 11.81668,3.26514 3.05782,3.05783 4.30168,7.61865 3.26513,11.81668 l -13.63064,54.26345 48.04414,28.76429 c 3.73158,2.22858 6.06382,6.32296 6.06382,10.67647 0,4.35352 -2.28041,8.44789 -6.06382,10.67648 l -48.04414,28.81611 13.63064,54.26345 c 1.03655,4.24986 -0.20731,8.75886 -3.26513,11.81668 -3.05783,3.05783 -7.61865,4.35351 -11.81668,3.31696 l -54.26345,-13.63064 -28.76429,48.04414 c -2.22858,3.73158 -6.32296,6.06382 -10.67647,6.06382 -4.35352,0 -8.44789,-2.28041 -10.67648,-6.06382 l -28.81612,-48.04414 -54.26344,13.63064 c -4.24986,1.03655 -8.70703,-0.20731 -11.81668,-3.26513 -3.10966,-3.05783 -4.35352,-7.61865 -3.31697,-11.86851 l 13.57882,-54.26345 -47.99231,-28.76429 c -3.73158,-2.28041 -6.01199,-6.32296 -6.01199,-10.67647 0,-4.35352 2.28041,-8.44789 6.06382,-10.67648 l 47.99231,-28.76429 -13.63065,-54.31527 c -1.03655,-4.24986 0.15549,-8.70703 3.26514,-11.81668 3.10965,-3.10965 7.61865,-4.30169 11.86851,-3.26514 l 54.26344,13.57882 28.76429,-47.99231 0.9329,-1.34751 c 2.33224,-2.95418 5.90834,-4.716313 9.74358,-4.716313 z m 0,74.631673 c -41.2029,0 -74.63167,33.42877 -74.63167,74.63167 0,41.2029 33.42877,74.63167 74.63167,74.63167 41.2029,0 74.63167,-33.42877 74.63167,-74.63167 0,-41.2029 -33.42877,-74.63167 -74.63167,-74.63167 z m 0,124.38612 c -27.4686,0 -49.75445,-22.28585 -49.75445,-49.75445 0,-27.4686 22.28585,-49.75445 49.75445,-49.75445 27.4686,0 49.75445,22.28585 49.75445,49.75445 0,27.4686 -22.28585,49.75445 -49.75445,49.75445 z"
       id="path1-6"
       style="fill:#ffffff;stroke-width:0.518275" /></g></svg>
