<?xml version="1.0" encoding="UTF-8" standalone="no"?>
<!-- Created with Inkscape (http://www.inkscape.org/) -->

<svg
   width="512"
   height="512"
   viewBox="0 0 512 512"
   version="1.1"
   id="svg1"
   xml:space="preserve"
   sodipodi:docname="buds3pro-together.svg"
   inkscape:version="1.4.3 (0d15f75042, 2025-12-25)"
   xmlns:inkscape="http://www.inkscape.org/namespaces/inkscape"
   xmlns:sodipodi="http://sodipodi.sourceforge.net/DTD/sodipodi-0.dtd"
   xmlns="http://www.w3.org/2000/svg"
   xmlns:svg="http://www.w3.org/2000/svg"><sodipodi:namedview
     id="namedview1"
     pagecolor="#ffffff"
     bordercolor="#000000"
     borderopacity="0.25"
     inkscape:showpageshadow="2"
     inkscape:pageopacity="0.0"
     inkscape:pagecheckerboard="0"
     inkscape:deskcolor="#d1d1d1"
     inkscape:document-units="px"
     inkscape:zoom="0.79521084"
     inkscape:cx="216.9236"
     inkscape:cy="293.63282"
     inkscape:window-width="1646"
     inkscape:window-height="995"
     inkscape:window-x="0"
     inkscape:window-y="0"
     inkscape:window-maximized="1"
     inkscape:current-layer="g2" /><defs
     id="defs1" /><g
     inkscape:label="Capa 1"
     inkscape:groupmode="layer"
     id="layer1"><g
       id="g2"
       transform="translate(14.381024,-12.107413)"><g
         style="fill:none"
         id="g6"
         transform="matrix(0.79906307,0,0,0.79906307,0.60461271,110.30068)"><path
           d="m 353.772,18.6882 c -2.08,1.7639 -4.137,3.554 -6.171,5.37 l -2.957,2.5907 c -19.552,18.2327 -30.56,43.409 -31.622,69.8627 -0.596,29.5814 10.961,55.9744 30.731,77.6044 3.697,3.829 7.477,7.564 11.302,11.267 4.419,4.473 4.253,7.041 4.274,13.21 l 0.026,5.046 0.012,5.567 0.025,5.839 c 0.019,4.199 0.034,8.397 0.046,12.595 0.02,6.64 0.052,13.279 0.084,19.919 0.089,18.884 0.166,37.768 0.233,56.65 0.037,10.425 0.082,20.849 0.136,31.272 0.034,6.599 0.058,13.198 0.072,19.795 0.014,4.111 0.034,8.222 0.06,12.332 0.01,1.903 0.015,3.806 0.016,5.71 0.004,2.603 0.016,5.207 0.038,7.81 l 0.017,4.411 c 0.45,5.48 1.702,9.995 4.821,14.544 8.413,6.1 18.866,6.755 28.942,6.683 l 3.572,0.013 c 2.471,0.002 4.942,-0.005 7.413,-0.022 3.755,-0.02 7.508,0 11.262,0.026 2.418,-0.003 4.835,-0.009 7.251,-0.017 l 3.354,0.025 c 9.275,-0.107 17.522,-1.543 24.777,-7.589 4.469,-5.586 4.232,-11.29 4.545,-18.157 l 0.161,-3.433 c 0.622,-14.167 0.721,-28.34 0.83,-42.517 l 0.081,-8.775 c 0.07,-7.608 0.135,-15.215 0.196,-22.821 0.066,-7.8 0.135,-15.599 0.206,-23.398 0.137,-15.235 0.268,-30.47 0.394,-45.706 l 3.932,2.411 5.196,3.161 2.582,1.586 c 18.33,11.104 38.726,13.898 59.552,8.874 26.833,-8.167 47.512,-23.689 61.081,-48.416 10.252,-19.749 14.624,-42.723 8.096,-64.608 -8.681,-21.009 -23.712,-36.771 -43.843,-47.1438 -3.996,-2.7908 -5.778,-6.3717 -8.021,-10.5707 -13.243,-23.3346 -31.176,-40.545 -53.946,-54.3478 l -2.252,-1.3851 C 450.067,-0.635885 393.841,-12.3198 353.772,18.6882 Z m 106.692,25.8907 2.441,1.1273 c 12.796,6.0331 23.114,13.6578 33.47,23.241 l 3.241,2.8806 c 14.673,13.668 24.069,32.0622 25.091,52.1882 -0.68,23.196 -14.685,42.436 -30.817,58.031 -10.534,9.277 -21.602,14.774 -35.822,14.318 -29.531,-3.278 -61.894,-17.414 -83.534,-37.64 L 372.1,156.596 C 359.636,145.12 352.296,131.195 347.601,115.119 l -0.783,-2.56 c -3.461,-17.7622 1.325,-35.1804 11.043,-50.0245 9.397,-13.3718 20.869,-24.4889 37.194,-28.216 l 2.991,-0.7054 c 21.49,-3.6193 43.038,1.9264 62.418,10.9658 z m 98.756,91.0601 c 1.047,2.243 2.088,4.488 3.126,6.734 l 1.759,3.787 c 4.253,9.985 4.258,20.972 0.807,31.243 -7.245,17.481 -18.63,29.886 -35.947,37.844 -7.847,3.027 -15.242,4.114 -23.612,3.758 1.51,-4.528 2.789,-5.272 6.573,-8.016 9.498,-6.9 16.544,-14.978 22.926,-24.769 l 2.008,-3.069 c 9.798,-15.188 16.101,-29.841 19.795,-47.512 z m -153.584,78.637 c 5.803,2.742 11.594,5.129 17.635,7.294 1.212,8.166 1.464,16.107 1.449,24.355 l 0.006,4.168 c 0.004,4.518 0.003,9.037 -0.002,13.556 l 0.004,9.435 c 10e-4,6.575 -0.001,13.151 -0.008,19.726 -0.005,8.448 -0.004,16.895 0.005,25.343 0.004,6.486 0.004,12.972 0,19.456 0,3.117 10e-4,6.234 0.003,9.351 0.002,4.339 -0.001,8.678 -0.009,13.017 l 0.009,3.934 -0.012,3.558 -0.001,3.108 c 0.093,2.36 0.093,2.36 -1.444,3.615 -2.082,0.129 -4.169,0.167 -6.253,0.171 l -3.827,0.005 -4.028,-0.015 -4.028,0.015 -3.828,-0.005 -3.537,-0.005 c -2.696,0.137 -2.696,0.137 -3.998,-1.448 -0.114,-2.095 -0.165,-4.192 -0.154,-6.29 l -0.005,-4.126 0.013,-4.564 v -4.777 c 0.001,-4.335 0.006,-8.67 0.017,-13.005 0.006,-4.526 0.009,-9.052 0.01,-13.578 0.004,-8.576 0.013,-17.152 0.027,-25.728 0.013,-9.76 0.023,-19.52 0.028,-29.28 0.014,-20.085 0.035,-40.169 0.064,-60.253 5.252,0 7.259,0.737 11.864,2.967 z"
           fill="#000000"
           id="path1-3" /><path
           d="m 412.23,73.116 c 14.823,9.4312 22.013,24.6616 16.06,34.018 -5.953,9.357 -22.795,9.296 -37.618,-0.135 -14.823,-9.4311 -22.013,-24.6615 -16.06,-34.0181 5.953,-9.3565 22.796,-9.296 37.618,0.1351 z"
           fill="#000000"
           id="path2" /><path
           d="m 247.649,18.6882 c 2.08,1.7639 4.137,3.554 6.171,5.37 l 2.957,2.5907 c 19.552,18.2327 30.56,43.409 31.622,69.8627 0.596,29.5814 -10.961,55.9744 -30.731,77.6044 -3.698,3.829 -7.477,7.564 -11.302,11.267 -4.419,4.473 -4.253,7.041 -4.274,13.21 l -0.026,5.046 -0.012,5.567 -0.025,5.839 c -0.019,4.199 -0.035,8.397 -0.047,12.595 -0.019,6.64 -0.051,13.279 -0.083,19.919 -0.089,18.884 -0.167,37.768 -0.233,56.65 -0.037,10.425 -0.082,20.849 -0.136,31.272 -0.034,6.599 -0.058,13.198 -0.072,19.795 -0.014,4.111 -0.034,8.222 -0.06,12.332 -0.01,1.903 -0.015,3.806 -0.016,5.71 -0.004,2.603 -0.016,5.207 -0.038,7.81 l -0.017,4.411 c -0.45,5.48 -1.702,9.995 -4.821,14.544 -8.413,6.1 -18.866,6.755 -28.942,6.683 l -3.572,0.013 c -2.471,0.002 -4.942,-0.005 -7.413,-0.022 -3.755,-0.02 -7.508,0 -11.262,0.026 -2.418,-0.003 -4.835,-0.009 -7.251,-0.017 l -3.354,0.025 c -9.275,-0.107 -17.522,-1.543 -24.778,-7.589 -4.468,-5.586 -4.231,-11.29 -4.544,-18.157 l -0.161,-3.433 c -0.622,-14.167 -0.721,-28.34 -0.83,-42.517 l -0.081,-8.775 c -0.07,-7.608 -0.135,-15.215 -0.196,-22.821 -0.066,-7.8 -0.135,-15.599 -0.207,-23.398 -0.136,-15.235 -0.267,-30.47 -0.393,-45.706 l -3.933,2.411 -5.195,3.161 -2.582,1.586 c -18.33,11.104 -38.7263,13.898 -59.5522,8.874 C 45.4265,242.26 24.748,226.738 11.1787,202.011 0.927363,182.262 -3.44482,159.288 3.08332,137.403 11.7636,116.394 26.795,100.632 46.9258,90.2592 c 3.9964,-2.7908 5.7778,-6.3717 8.021,-10.5707 13.2435,-23.3346 31.176,-40.545 53.9462,-54.3478 l 2.252,-1.3851 c 40.209,-24.591485 96.435,-36.2754 136.504,-5.2674 z m -106.692,25.8907 -2.441,1.1273 c -12.796,6.0331 -23.114,13.6578 -33.471,23.241 l -3.241,2.8806 C 87.1322,85.4958 77.7363,103.89 76.7141,124.016 c 0.6797,23.196 14.6851,42.436 30.8169,58.031 10.534,9.277 21.602,14.774 35.821,14.318 29.532,-3.278 61.895,-17.414 83.535,-37.64 l 2.434,-2.129 c 12.464,-11.476 19.804,-25.401 24.499,-41.477 l 0.783,-2.56 C 258.064,94.7968 253.278,77.3786 243.56,62.5345 234.163,49.1627 222.69,38.0456 206.366,34.3185 l -2.991,-0.7054 c -21.49,-3.6193 -43.038,1.9264 -62.418,10.9658 z M 42.2009,135.639 c -1.0466,2.243 -2.0884,4.488 -3.1256,6.734 l -1.7596,3.787 c -4.253,9.985 -4.2581,20.972 -0.8068,31.243 7.2451,17.481 18.6302,29.886 35.9471,37.844 7.8466,3.027 15.2418,4.114 23.6116,3.758 -1.5095,-4.528 -2.7882,-5.272 -6.573,-8.016 -9.4972,-6.9 -16.5435,-14.978 -22.9254,-24.769 l -2.0085,-3.069 C 54.7634,167.963 48.4597,153.31 44.766,135.639 Z m 153.5841,78.637 c -5.803,2.742 -11.594,5.129 -17.635,7.294 -1.212,8.166 -1.464,16.107 -1.449,24.355 l -0.006,4.168 c -0.004,4.518 -0.003,9.037 0.002,13.556 l -0.004,9.435 c -0.001,6.575 10e-4,13.151 0.008,19.726 0.005,8.448 0.003,16.895 -0.005,25.343 -0.004,6.486 -0.004,12.972 0,19.456 0,3.117 -0.001,6.234 -0.003,9.351 -0.002,4.339 10e-4,8.678 0.009,13.017 l -0.009,3.934 0.012,3.558 10e-4,3.108 c -0.093,2.36 -0.093,2.36 1.444,3.615 2.082,0.129 4.169,0.167 6.253,0.171 l 3.827,0.005 4.028,-0.015 4.028,0.015 3.828,-0.005 3.537,-0.005 c 2.696,0.137 2.696,0.137 3.998,-1.448 0.114,-2.095 0.165,-4.192 0.154,-6.29 l 0.005,-4.126 -0.013,-4.564 v -4.777 c -10e-4,-4.335 -0.006,-8.67 -0.017,-13.005 -0.006,-4.526 -0.009,-9.052 -0.01,-13.578 -0.004,-8.576 -0.013,-17.152 -0.027,-25.728 -0.014,-9.76 -0.023,-19.52 -0.028,-29.28 -0.014,-20.085 -0.035,-40.169 -0.064,-60.253 -5.252,0 -7.259,0.737 -11.864,2.967 z"
           fill="#000000"
           id="path3" /><path
           d="m 189.19,73.116 c -14.822,9.4312 -22.012,24.6616 -16.059,34.018 5.953,9.357 22.795,9.296 37.618,-0.135 14.823,-9.4311 22.013,-24.6615 16.06,-34.0181 -5.954,-9.3565 -22.796,-9.296 -37.619,0.1351 z"
           fill="#000000"
           id="path4-9" /></g></g></g></svg>
