<?xml version="1.0" encoding="UTF-8" standalone="no"?>
<!-- Created with Inkscape (http://www.inkscape.org/) -->

<svg
   width="512"
   height="512"
   viewBox="0 0 512 512"
   version="1.1"
   id="svg1"
   xml:space="preserve"
   inkscape:version="1.4.3 (0d15f75042, 2025-12-25)"
   sodipodi:docname="general.svg"
   xmlns:inkscape="http://www.inkscape.org/namespaces/inkscape"
   xmlns:sodipodi="http://sodipodi.sourceforge.net/DTD/sodipodi-0.dtd"
   xmlns="http://www.w3.org/2000/svg"
   xmlns:svg="http://www.w3.org/2000/svg"><sodipodi:namedview
     id="namedview1"
     pagecolor="#ffffff"
     bordercolor="#000000"
     borderopacity="0.25"
     inkscape:showpageshadow="2"
     inkscape:pageopacity="0.0"
     inkscape:pagecheckerboard="0"
     inkscape:deskcolor="#d1d1d1"
     inkscape:document-units="px"
     inkscape:zoom="0.77188671"
     inkscape:cx="201.45443"
     inkscape:cy="204.04549"
     inkscape:window-width="1646"
     inkscape:window-height="995"
     inkscape:window-x="0"
     inkscape:window-y="0"
     inkscape:window-maximized="1"
     inkscape:current-layer="layer1" /><defs
     id="defs1" /><g
     inkscape:label="Capa 1"
     inkscape:groupmode="layer"
     id="layer1"><circle
       style="fill:#665e85;fill-opacity:1;stroke-width:0"
       id="path1"
       cx="257.84473"
       cy="256.31073"
       r="252" /><path
       d="m 160.9359,160.16335 c -8.18617,0 -14.79986,6.61369 -14.79986,14.79986 0,8.18617 6.61369,14.79985 14.79986,14.79985 h 40.09836 c 5.68869,13.08863 18.73107,22.19979 33.90092,22.19979 15.16985,0 28.21222,-9.11116 33.90092,-22.19979 h 99.29778 c 8.18617,0 14.79986,-6.61368 14.79986,-14.79985 0,-8.18617 -6.61369,-14.79986 -14.79986,-14.79986 H 268.8361 c -5.6887,-13.08862 -18.73107,-22.19978 -33.90092,-22.19978 -15.16985,0 -28.21223,9.11116 -33.90092,22.19978 z m 0,73.99928 c -8.18617,0 -14.79986,6.61369 -14.79986,14.79986 0,8.18617 6.61369,14.79985 14.79986,14.79985 h 114.09764 c 5.68869,13.08863 18.73107,22.19979 33.90092,22.19979 15.16985,0 28.21222,-9.11116 33.90092,-22.19979 h 25.2985 c 8.18617,0 14.79986,-6.61368 14.79986,-14.79985 0,-8.18617 -6.61369,-14.79986 -14.79986,-14.79986 h -25.2985 c -5.6887,-13.08862 -18.73107,-22.19978 -33.90092,-22.19978 -15.16985,0 -28.21223,9.11116 -33.90092,22.19978 z m 0,73.99928 c -8.18617,0 -14.79986,6.61369 -14.79986,14.79986 0,8.18617 6.61369,14.79986 14.79986,14.79986 h 25.2985 c 5.6887,13.08862 18.73107,22.19978 33.90092,22.19978 15.16985,0 28.21223,-9.11116 33.90092,-22.19978 h 114.09764 c 8.18617,0 14.79986,-6.61369 14.79986,-14.79986 0,-8.18617 -6.61369,-14.79986 -14.79986,-14.79986 H 254.03624 c -5.68869,-13.08862 -18.73107,-22.19978 -33.90092,-22.19978 -15.16985,0 -28.21222,9.11116 -33.90092,22.19978 z"
       id="path1-7"
       style="fill:#ffffff;stroke-width:0.462496" /></g></svg>
