<?xml version="1.0" encoding="UTF-8" standalone="no"?>
<!-- Created with Inkscape (http://www.inkscape.org/) -->

<svg
   width="512"
   height="512"
   viewBox="0 0 512 512"
   version="1.1"
   id="svg1"
   xml:space="preserve"
   inkscape:version="1.4.3 (0d15f75042, 2025-12-25)"
   sodipodi:docname="location.svg"
   inkscape:export-filename="location.png"
   inkscape:export-xdpi="96"
   inkscape:export-ydpi="96"
   xmlns:inkscape="http://www.inkscape.org/namespaces/inkscape"
   xmlns:sodipodi="http://sodipodi.sourceforge.net/DTD/sodipodi-0.dtd"
   xmlns="http://www.w3.org/2000/svg"
   xmlns:svg="http://www.w3.org/2000/svg"><sodipodi:namedview
     id="namedview1"
     pagecolor="#ffffff"
     bordercolor="#000000"
     borderopacity="0.25"
     inkscape:showpageshadow="2"
     inkscape:pageopacity="0.0"
     inkscape:pagecheckerboard="0"
     inkscape:deskcolor="#d1d1d1"
     inkscape:document-units="px"
     inkscape:zoom="1.1559913"
     inkscape:cx="214.53448"
     inkscape:cy="282.44157"
     inkscape:window-width="1646"
     inkscape:window-height="995"
     inkscape:window-x="0"
     inkscape:window-y="0"
     inkscape:window-maximized="1"
     inkscape:current-layer="layer1" /><defs
     id="defs1" /><g
     inkscape:label="Capa 1"
     inkscape:groupmode="layer"
     id="layer1"><circle
       style="fill:#947cff;fill-opacity:1;stroke-width:0"
       id="path1"
       cx="256.85043"
       cy="256.37869"
       r="252" /><path
       d="m 162.52861,209.32297 c 0,-53.44206 44.10766,-96.72911 98.47291,-96.72911 54.36525,0 98.47291,43.28705 98.47291,96.72911 0,61.18655 -61.64814,134.52836 -87.39471,162.48031 -6.05198,6.56486 -16.15571,6.56486 -22.20769,0 -25.74657,-27.95195 -87.39471,-101.29376 -87.39471,-162.48031 z m 98.47291,34.5681 c 18.10466,0 32.8243,-14.71965 32.8243,-32.8243 0,-18.10466 -14.71964,-32.82431 -32.8243,-32.82431 -18.10466,0 -32.8243,14.71965 -32.8243,32.82431 0,18.10465 14.71964,32.8243 32.8243,32.8243 z"
       id="path1-3"
       style="fill:#ffffff;stroke-width:0.51288" /></g></svg>
