<?xml version="1.0" encoding="UTF-8" standalone="no"?>
<!-- Created with Inkscape (http://www.inkscape.org/) -->

<svg
   width="512"
   height="512"
   viewBox="0 0 512 512"
   version="1.1"
   id="svg1"
   xml:space="preserve"
   inkscape:version="1.4.3 (0d15f75042, 2025-12-25)"
   sodipodi:docname="settings.svg"
   inkscape:export-filename="settings.png"
   inkscape:export-xdpi="96"
   inkscape:export-ydpi="96"
   xmlns:inkscape="http://www.inkscape.org/namespaces/inkscape"
   xmlns:sodipodi="http://sodipodi.sourceforge.net/DTD/sodipodi-0.dtd"
   xmlns="http://www.w3.org/2000/svg"
   xmlns:svg="http://www.w3.org/2000/svg"><sodipodi:namedview
     id="namedview1"
     pagecolor="#ffffff"
     bordercolor="#000000"
     borderopacity="0.25"
     inkscape:showpageshadow="2"
     inkscape:pageopacity="0.0"
     inkscape:pagecheckerboard="0"
     inkscape:deskcolor="#d1d1d1"
     inkscape:document-units="px"
     inkscape:zoom="0.96729986"
     inkscape:cx="143.69898"
     inkscape:cy="163.85819"
     inkscape:window-width="1646"
     inkscape:window-height="995"
     inkscape:window-x="0"
     inkscape:window-y="0"
     inkscape:window-maximized="1"
     inkscape:current-layer="layer1" /><defs
     id="defs1" /><g
     inkscape:label="Capa 1"
     inkscape:groupmode="layer"
     id="layer1"><path
       d="m 207.62106,57.29259 c 2.40227,-11.85117 12.89216,-20.41926 25.06364,-20.41926 h 47.88517 c 12.17148,0 22.66138,8.56809 25.06364,20.41926 l 11.61096,56.05288 c 11.29064,4.80453 21.86061,10.97034 31.46968,18.25722 l 54.29121,-18.017 c 11.53087,-3.84362 24.18281,0.96091 30.26855,11.53088 l 23.94258,41.47912 c 6.08574,10.56997 3.9237,23.86251 -5.20491,31.95014 l -42.68025,37.9558 c 0.72067,5.92559 1.04098,12.01133 1.04098,18.17715 0,6.16581 -0.40038,12.25155 -1.04098,18.17714 l 42.76033,38.03588 c 9.12861,8.08763 11.21057,21.46024 5.20491,31.95014 l -23.94259,41.47912 c -6.08574,10.4899 -18.73767,15.3745 -30.26855,11.53088 l -54.29121,-18.017 c -9.68914,7.28688 -20.25911,13.37262 -31.46968,18.25722 l -11.53088,55.9728 c -2.48234,11.93125 -12.97223,20.41926 -25.06364,20.41926 h -47.88516 c -12.17148,0 -22.66138,-8.56808 -25.06365,-20.41926 l -11.53087,-55.9728 c -11.29065,-4.80453 -21.78055,-10.97034 -31.46968,-18.25722 l -54.53144,18.017 c -11.530875,3.84362 -24.182805,-0.96091 -30.268545,-11.53088 l -23.94259,-41.47912 c -6.08574,-10.56997 -3.9237,-23.86251 5.20491,-31.95014 l 42.760325,-38.03588 c -0.72068,-5.92559 -1.04098,-12.01133 -1.04098,-18.17714 0,-6.16582 0.40038,-12.25156 1.04098,-18.17715 L 61.242995,198.46575 c -9.12861,-8.08762 -11.21057,-21.46024 -5.20491,-31.95013 l 23.94259,-41.47913 c 6.08574,-10.56997 18.73767,-15.3745 30.268545,-11.53087 l 54.29121,18.01699 c 9.68914,-7.28687 20.25911,-13.37261 31.46968,-18.25722 z m 49.00623,261.44661 c 35.39338,-0.16015 63.98035,-28.90726 63.8202,-64.30065 -0.16015,-35.39338 -28.90727,-63.98035 -64.30065,-63.8202 -35.39339,0.16015 -63.98035,28.90727 -63.8202,64.30065 0.16015,35.39339 28.90726,63.98035 64.30065,63.8202 z"
       id="path1"
       style="stroke-width:0.800755;fill:#a3a3a3;fill-opacity:1" /><circle
       style="fill:#6699ff;fill-opacity:1;stroke-linejoin:round;stroke-miterlimit:0"
       id="path2"
       cx="255.94023"
       cy="255.20374"
       r="54.87064" /></g></svg>
