<?xml version="1.0" encoding="UTF-8" standalone="no"?>
<!-- Created with Inkscape (http://www.inkscape.org/) -->

<svg
   width="512"
   height="512"
   viewBox="0 0 512 512"
   version="1.1"
   id="svg1"
   xml:space="preserve"
   inkscape:version="1.4.3 (0d15f75042, 2025-12-25)"
   sodipodi:docname="sound.svg"
   xmlns:inkscape="http://www.inkscape.org/namespaces/inkscape"
   xmlns:sodipodi="http://sodipodi.sourceforge.net/DTD/sodipodi-0.dtd"
   xmlns="http://www.w3.org/2000/svg"
   xmlns:svg="http://www.w3.org/2000/svg"><sodipodi:namedview
     id="namedview1"
     pagecolor="#ffffff"
     bordercolor="#000000"
     borderopacity="0.25"
     inkscape:showpageshadow="2"
     inkscape:pageopacity="0.0"
     inkscape:pagecheckerboard="0"
     inkscape:deskcolor="#d1d1d1"
     inkscape:document-units="px"
     inkscape:zoom="1.0465032"
     inkscape:cx="269.94662"
     inkscape:cy="235.54635"
     inkscape:window-width="1646"
     inkscape:window-height="995"
     inkscape:window-x="0"
     inkscape:window-y="0"
     inkscape:window-maximized="1"
     inkscape:current-layer="layer1" /><defs
     id="defs1" /><g
     inkscape:label="Capa 1"
     inkscape:groupmode="layer"
     id="layer1"><circle
       style="fill:#947cff;fill-opacity:1;stroke:none;stroke-width:0"
       id="path1"
       cx="257.10199"
       cy="257.07013"
       r="252" /><path
       d="m 143.6964,299.94527 h 25.57839 l 71.45962,63.51967 c 3.41046,3.03743 7.7801,4.68937 12.3096,4.68937 10.23136,0 18.54434,-8.31298 18.54434,-18.54433 V 147.967 c 0,-10.23136 -8.31298,-18.54433 -18.54434,-18.54433 -4.5295,0 -8.89914,1.65193 -12.3096,4.68937 l -71.45962,63.51967 H 143.6964 c -14.12141,0 -25.57839,11.45698 -25.57839,25.57839 v 51.15678 c 0,14.1214 11.45698,25.57839 25.57839,25.57839 z M 353.17276,169.3889 c -5.4887,-4.47622 -13.53524,-3.6236 -18.01145,1.86509 -4.47622,5.4887 -3.62361,13.53523 1.86509,18.01145 17.3187,14.06812 28.34938,35.49002 28.34938,59.52305 0,24.03303 -11.03068,45.45493 -28.34938,59.57633 -5.4887,4.47622 -6.28802,12.52276 -1.86509,18.01145 4.42293,5.4887 12.52275,6.28802 18.01145,1.86509 23.02055,-18.75748 37.78141,-47.37331 37.78141,-79.39958 0,-32.02628 -14.76086,-60.6421 -37.78141,-79.39959 z m -32.23943,39.69979 c -5.4887,-4.47621 -13.53524,-3.6236 -18.01145,1.8651 -4.47622,5.48869 -3.62361,13.53523 1.86509,18.01145 5.75514,4.68937 9.43203,11.83 9.43203,19.82325 0,7.99325 -3.67689,15.13388 -9.43203,19.87654 -5.4887,4.47622 -6.28802,12.52275 -1.86509,18.01145 4.42293,5.4887 12.52275,6.28802 18.01145,1.86509 11.45698,-9.43203 18.86406,-23.7133 18.86406,-39.75308 0,-16.03978 -7.40708,-30.32105 -18.91735,-39.6998 z"
       id="path1-0"
       style="stroke-width:0.532883;fill:#ffffff" /></g></svg>
