<?xml version="1.0" encoding="UTF-8" standalone="no"?>
<!-- Created with Inkscape (http://www.inkscape.org/) -->

<svg
   width="512"
   height="512"
   viewBox="0 0 512 512"
   version="1.1"
   id="svg1"
   xml:space="preserve"
   inkscape:version="1.4.3 (0d15f75042, 2025-12-25)"
   sodipodi:docname="themes.svg"
   inkscape:export-filename="themes.png"
   inkscape:export-xdpi="96"
   inkscape:export-ydpi="96"
   xmlns:inkscape="http://www.inkscape.org/namespaces/inkscape"
   xmlns:sodipodi="http://sodipodi.sourceforge.net/DTD/sodipodi-0.dtd"
   xmlns="http://www.w3.org/2000/svg"
   xmlns:svg="http://www.w3.org/2000/svg"><sodipodi:namedview
     id="namedview1"
     pagecolor="#ffffff"
     bordercolor="#000000"
     borderopacity="0.25"
     inkscape:showpageshadow="2"
     inkscape:pageopacity="0.0"
     inkscape:pagecheckerboard="0"
     inkscape:deskcolor="#d1d1d1"
     inkscape:document-units="px"
     inkscape:zoom="1.0304676"
     inkscape:cx="298.89342"
     inkscape:cy="288.70387"
     inkscape:window-width="1646"
     inkscape:window-height="995"
     inkscape:window-x="0"
     inkscape:window-y="0"
     inkscape:window-maximized="1"
     inkscape:current-layer="layer1" /><defs
     id="defs1" /><g
     inkscape:label="Capa 1"
     inkscape:groupmode="layer"
     id="layer1"><circle
       style="fill:#ff687f;fill-opacity:1;stroke-width:0"
       id="path1"
       cx="256.92136"
       cy="255.71323"
       r="252" /><path
       d="m 394.65188,255.43136 c 0,0.44794 0,0.89589 0,1.34385 -0.19909,18.16696 -16.72356,30.51054 -34.89052,30.51054 h -48.72728 c -13.18971,0 -23.8908,10.70109 -23.8908,23.8908 0,1.69227 0.19909,3.33476 0.49772,4.92748 1.04522,5.07679 3.23522,9.9545 5.37543,14.88198 3.03612,6.8686 6.02247,13.68743 6.02247,20.90445 0,15.82765 -10.75085,30.2119 -26.57851,30.85895 -1.74204,0.0498 -3.48408,0.0996 -5.27589,0.0996 -70.37831,0 -127.4176,-57.03929 -127.4176,-127.4176 0,-70.37831 57.08907,-127.4176 127.46738,-127.4176 70.37831,0 127.4176,57.03929 127.4176,127.4176 z m -191.1264,15.92719 c 0,-8.80973 -7.11747,-15.92719 -15.9272,-15.92719 -8.80974,0 -15.9272,7.11746 -15.9272,15.92719 0,8.80974 7.11746,15.9272 15.9272,15.9272 8.80973,0 15.9272,-7.11746 15.9272,-15.9272 z m 0,-47.7816 c 8.80973,0 15.9272,-7.11747 15.9272,-15.9272 0,-8.80974 -7.11747,-15.9272 -15.9272,-15.9272 -8.80974,0 -15.9272,7.11746 -15.9272,15.9272 0,8.80973 7.11746,15.9272 15.9272,15.9272 z m 79.63599,-47.7816 c 0,-8.80974 -7.11746,-15.9272 -15.92719,-15.9272 -8.80974,0 -15.9272,7.11746 -15.9272,15.9272 0,8.80973 7.11746,15.9272 15.9272,15.9272 8.80973,0 15.92719,-7.11747 15.92719,-15.9272 z m 47.78161,47.7816 c 8.80974,0 15.9272,-7.11747 15.9272,-15.9272 0,-8.80974 -7.11746,-15.9272 -15.9272,-15.9272 -8.80973,0 -15.92721,7.11746 -15.92721,15.9272 0,8.80973 7.11748,15.9272 15.92721,15.9272 z"
       id="path1-3"
       style="fill:#ffffff;stroke-width:0.497725" /></g></svg>
