<?xml version="1.0" encoding="UTF-8" standalone="no"?>
<!-- Created with Inkscape (http://www.inkscape.org/) -->

<svg
   width="512"
   height="512"
   viewBox="0 0 512 512"
   version="1.1"
   id="svg1"
   xml:space="preserve"
   inkscape:version="1.4.3 (0d15f75042, 2025-12-25)"
   sodipodi:docname="about.svg"
   xmlns:inkscape="http://www.inkscape.org/namespaces/inkscape"
   xmlns:sodipodi="http://sodipodi.sourceforge.net/DTD/sodipodi-0.dtd"
   xmlns="http://www.w3.org/2000/svg"
   xmlns:svg="http://www.w3.org/2000/svg"><sodipodi:namedview
     id="namedview1"
     pagecolor="#ffffff"
     bordercolor="#000000"
     borderopacity="0.25"
     inkscape:showpageshadow="2"
     inkscape:pageopacity="0.0"
     inkscape:pagecheckerboard="0"
     inkscape:deskcolor="#d1d1d1"
     inkscape:document-units="px"
     inkscape:zoom="0.82668972"
     inkscape:cx="205.63943"
     inkscape:cy="230.43712"
     inkscape:window-width="1646"
     inkscape:window-height="995"
     inkscape:window-x="0"
     inkscape:window-y="0"
     inkscape:window-maximized="1"
     inkscape:current-layer="layer1" /><defs
     id="defs1" /><g
     inkscape:label="Capa 1"
     inkscape:groupmode="layer"
     id="layer1"><circle
       style="fill:#665e85;fill-opacity:1;stroke:none;stroke-width:0"
       id="path1"
       cx="258.457"
       cy="256.33963"
       r="252" /><path
       d="m 231.92609,131.58229 c 0,-14.98003 12.15361,-27.13364 27.13365,-27.13364 14.98003,0 27.13364,12.15361 27.13364,27.13364 0,14.98004 -12.15361,27.13365 -27.13364,27.13365 -14.98004,0 -27.13365,-12.15361 -27.13365,-27.13365 z m -27.13365,81.40094 c 0,-10.00553 8.08357,-18.08909 18.0891,-18.08909 h 36.1782 c 10.00553,0 18.08909,8.08356 18.08909,18.08909 v 144.71278 h 18.0891 c 10.00553,0 18.0891,8.08357 18.0891,18.0891 0,10.00553 -8.08357,18.0891 -18.0891,18.0891 h -72.35639 c -10.00553,0 -18.0891,-8.08357 -18.0891,-18.0891 0,-10.00553 8.08357,-18.0891 18.0891,-18.0891 h 18.0891 V 231.07233 h -18.0891 c -10.00553,0 -18.0891,-8.08356 -18.0891,-18.0891 z"
       id="path1-9"
       style="stroke-width:0.565284;fill:#ffffff" /></g></svg>
