<?xml version="1.0" encoding="UTF-8" standalone="no"?>
<!-- Created with Inkscape (http://www.inkscape.org/) -->

<svg
   width="512"
   height="512"
   viewBox="0 0 512 512"
   version="1.1"
   id="svg1"
   xml:space="preserve"
   inkscape:version="1.4.3 (0d15f75042, 2025-12-25)"
   sodipodi:docname="accesibility-without.round.svg"
   xmlns:inkscape="http://www.inkscape.org/namespaces/inkscape"
   xmlns:sodipodi="http://sodipodi.sourceforge.net/DTD/sodipodi-0.dtd"
   xmlns="http://www.w3.org/2000/svg"
   xmlns:svg="http://www.w3.org/2000/svg"><sodipodi:namedview
     id="namedview1"
     pagecolor="#ffffff"
     bordercolor="#000000"
     borderopacity="0.25"
     inkscape:showpageshadow="2"
     inkscape:pageopacity="0.0"
     inkscape:pagecheckerboard="0"
     inkscape:deskcolor="#d1d1d1"
     inkscape:document-units="px"
     inkscape:zoom="0.90943357"
     inkscape:cx="296.3383"
     inkscape:cy="242.45861"
     inkscape:window-width="1646"
     inkscape:window-height="995"
     inkscape:window-x="0"
     inkscape:window-y="0"
     inkscape:window-maximized="1"
     inkscape:current-layer="layer1" /><defs
     id="defs1" /><g
     inkscape:label="Capa 1"
     inkscape:groupmode="layer"
     id="layer1"><path
       d="m 140.46062,158.9357 c -8.57687,0 -15.50621,6.92934 -15.50621,15.50621 0,8.57688 6.92934,15.50623 15.50621,15.50623 h 42.01216 c 5.9602,13.7133 19.62506,23.25932 35.51893,23.25932 15.89387,0 29.55873,-9.54602 35.51893,-23.25932 h 104.03702 c 8.57688,0 15.50622,-6.92935 15.50622,-15.50623 0,-8.57687 -6.92934,-15.50621 -15.50622,-15.50621 H 253.51064 c -5.9602,-13.71331 -19.62506,-23.25932 -35.51893,-23.25932 -15.89387,0 -29.55873,9.54601 -35.51893,23.25932 z m 0,77.53109 c -8.57687,0 -15.50621,6.92934 -15.50621,15.50621 0,8.57688 6.92934,15.50622 15.50621,15.50622 h 119.54324 c 5.96021,13.71331 19.62506,23.25933 35.51894,23.25933 15.89387,0 29.55872,-9.54602 35.51892,-23.25933 h 26.50594 c 8.57688,0 15.50622,-6.92934 15.50622,-15.50622 0,-8.57687 -6.92934,-15.50621 -15.50622,-15.50621 h -26.50594 c -5.9602,-13.71331 -19.62505,-23.25933 -35.51892,-23.25933 -15.89388,0 -29.55873,9.54602 -35.51894,23.25933 z m 0,77.53108 c -8.57687,0 -15.50621,6.92934 -15.50621,15.50622 0,8.57688 6.92934,15.50621 15.50621,15.50621 h 26.50594 c 5.96021,13.71332 19.62506,23.25933 35.51894,23.25933 15.89386,0 29.55872,-9.54601 35.51892,-23.25933 h 119.54324 c 8.57688,0 15.50622,-6.92933 15.50622,-15.50621 0,-8.57688 -6.92934,-15.50622 -15.50622,-15.50622 H 238.00442 c -5.9602,-13.71331 -19.62506,-23.25932 -35.51892,-23.25932 -15.89388,0 -29.55873,9.54601 -35.51894,23.25932 z"
       id="path1"
       style="stroke-width:0.484569" /></g></svg>
