<?xml version="1.0" encoding="UTF-8" standalone="no"?>
<!-- Created with Inkscape (http://www.inkscape.org/) -->

<svg
   width="512"
   height="512"
   viewBox="0 0 512 512"
   version="1.1"
   id="svg1"
   xml:space="preserve"
   inkscape:version="1.4.3 (0d15f75042, 2025-12-25)"
   sodipodi:docname="accesibility.svg"
   xmlns:inkscape="http://www.inkscape.org/namespaces/inkscape"
   xmlns:sodipodi="http://sodipodi.sourceforge.net/DTD/sodipodi-0.dtd"
   xmlns="http://www.w3.org/2000/svg"
   xmlns:svg="http://www.w3.org/2000/svg"><sodipodi:namedview
     id="namedview1"
     pagecolor="#ffffff"
     bordercolor="#000000"
     borderopacity="0.25"
     inkscape:showpageshadow="2"
     inkscape:pageopacity="0.0"
     inkscape:pagecheckerboard="0"
     inkscape:deskcolor="#d1d1d1"
     inkscape:document-units="px"
     inkscape:zoom="0.68237495"
     inkscape:cx="219.82049"
     inkscape:cy="244.00075"
     inkscape:window-width="1646"
     inkscape:window-height="995"
     inkscape:window-x="0"
     inkscape:window-y="0"
     inkscape:window-maximized="1"
     inkscape:current-layer="layer1" /><defs
     id="defs1" /><g
     inkscape:label="Capa 1"
     inkscape:groupmode="layer"
     id="layer1"><circle
       style="fill:#86c100;fill-opacity:1;stroke:none;stroke-width:0"
       id="path1"
       cx="258.12799"
       cy="256.34399"
       r="252" /><circle
       style="fill:#ffffff;fill-opacity:1;stroke:none;stroke-width:0"
       id="path1-3"
       cx="269.63773"
       cy="258.13913"
       r="173.81679" /><path
       d="m 66.073602,251.47466 c 0,-106.69758 86.474858,-193.172444 193.172438,-193.172444 106.6976,0 193.17246,86.474864 193.17246,193.172444 0,106.6976 -86.47486,193.17246 -193.17246,193.17246 -106.69758,0 -193.172438,-86.47486 -193.172438,-193.17246 z M 187.93825,186.50535 c -9.20588,-3.92382 -19.84546,0.30183 -23.76928,9.50769 -3.9238,9.20589 0.30184,19.84545 9.50773,23.76927 l 8.97948,3.84836 c 13.05424,5.58389 26.56122,9.73409 40.44549,12.29966 v 37.80445 c 0,3.24471 -0.52822,6.48938 -1.5846,9.50771 l -21.65646,64.96931 c -3.16924,9.50771 1.96191,19.77 11.46961,22.93923 9.50771,3.16925 19.76999,-1.96191 22.93924,-11.4696 l 18.41175,-55.23525 c 0.98095,-2.86739 3.62198,-4.8293 6.64029,-4.8293 3.01834,0 5.73481,1.96191 6.64031,4.8293 l 18.41174,55.23525 c 3.16925,9.50769 13.43152,14.63885 22.93925,11.4696 9.50769,-3.16923 14.56339,-13.2806 11.39415,-22.78829 L 297.05051,283.3934 c -1.05642,-3.09377 -1.58464,-6.26302 -1.58464,-9.50771 v -37.80446 c 13.8843,-2.64102 27.39126,-6.71575 40.44549,-12.29965 l 8.97951,-3.84835 c 9.20588,-3.92381 13.43152,-14.5634 9.50771,-23.76926 -3.92382,-9.20587 -14.56341,-13.43152 -23.76928,-9.50771 l -8.9795,3.69744 c -19.69453,8.4513 -40.89823,12.82785 -62.40376,12.82785 -21.50552,0 -42.63375,-4.37655 -62.40375,-12.82785 l -8.9795,-3.84835 z m 71.30779,-7.47035 c 16.67622,0 30.18322,-13.50696 30.18322,-30.18319 0,-16.67621 -13.507,-30.18321 -30.18322,-30.18321 -16.6762,0 -30.18318,13.507 -30.18318,30.18321 0,16.67623 13.50698,30.18319 30.18318,30.18319 z"
       id="path1-2"
       style="fill:#86c100;fill-opacity:1;stroke-width:0.754579" /></g></svg>
