<svg width="209" height="113" viewBox="0 0 209 113" fill="none" xmlns="http://www.w3.org/2000/svg">
<rect width="209" height="113" rx="25" fill="#D0D3D3"/>
<rect width="209" height="60" rx="25" fill="#A1A1A1" fill-opacity="0.75"/>
<rect y="32" width="209" height="60" fill="#D0D3D3"/>
<rect y="43" width="209" height="3" fill="#BFBFBF"/>
<rect x="103" y="58" width="4" height="4" rx="2" fill="#646464"/>
<path d="M96.574 55V50.114H98.835C99.2363 50.114 99.5513 50.2283 99.78 50.457C100.013 50.6857 100.13 50.989 100.13 51.367C100.13 51.6143 100.088 51.8127 100.004 51.962C99.92 52.1113 99.8103 52.221 99.675 52.291C99.5443 52.361 99.4043 52.403 99.255 52.417V52.459C99.3623 52.459 99.4767 52.48 99.598 52.522C99.7193 52.564 99.8337 52.6293 99.941 52.718C100.053 52.8067 100.142 52.9233 100.207 53.068C100.277 53.2127 100.312 53.39 100.312 53.6C100.312 53.8613 100.256 54.097 100.144 54.307C100.037 54.517 99.8873 54.685 99.696 54.811C99.5093 54.937 99.2947 55 99.052 55H96.574ZM97.498 52.907V54.216H98.786C98.9027 54.216 99.003 54.195 99.087 54.153C99.171 54.111 99.234 54.0503 99.276 53.971C99.3227 53.8917 99.346 53.796 99.346 53.684V53.446C99.346 53.3293 99.3227 53.2313 99.276 53.152C99.234 53.0727 99.171 53.012 99.087 52.97C99.003 52.928 98.9027 52.907 98.786 52.907H97.498ZM97.498 50.898V52.151H98.639C98.751 52.151 98.8467 52.13 98.926 52.088C99.0053 52.046 99.066 51.9877 99.108 51.913C99.15 51.8337 99.171 51.7403 99.171 51.633V51.416C99.171 51.3087 99.15 51.2153 99.108 51.136C99.066 51.0567 99.0053 50.9983 98.926 50.961C98.8467 50.919 98.751 50.898 98.639 50.898H97.498ZM103.134 55.084C102.709 55.084 102.336 54.9883 102.014 54.797C101.692 54.6057 101.442 54.3233 101.265 53.95C101.092 53.572 101.006 53.1077 101.006 52.557C101.006 52.0063 101.092 51.5443 101.265 51.171C101.442 50.793 101.692 50.5083 102.014 50.317C102.336 50.1257 102.709 50.03 103.134 50.03C103.563 50.03 103.936 50.1257 104.254 50.317C104.576 50.5083 104.823 50.793 104.996 51.171C105.173 51.5443 105.262 52.0063 105.262 52.557C105.262 53.1077 105.173 53.572 104.996 53.95C104.823 54.3233 104.576 54.6057 104.254 54.797C103.936 54.9883 103.563 55.084 103.134 55.084ZM103.134 54.265C103.372 54.265 103.575 54.2113 103.743 54.104C103.915 53.9967 104.048 53.845 104.142 53.649C104.235 53.4483 104.282 53.2103 104.282 52.935V52.179C104.282 51.899 104.235 51.661 104.142 51.465C104.048 51.269 103.915 51.1173 103.743 51.01C103.575 50.9027 103.372 50.849 103.134 50.849C102.905 50.849 102.704 50.9027 102.532 51.01C102.359 51.1173 102.224 51.269 102.126 51.465C102.032 51.661 101.986 51.899 101.986 52.179V52.935C101.986 53.2103 102.032 53.4483 102.126 53.649C102.224 53.845 102.359 53.9967 102.532 54.104C102.704 54.2113 102.905 54.265 103.134 54.265ZM108.117 55.084C107.692 55.084 107.319 54.9883 106.997 54.797C106.675 54.6057 106.425 54.3233 106.248 53.95C106.075 53.572 105.989 53.1077 105.989 52.557C105.989 52.0063 106.075 51.5443 106.248 51.171C106.425 50.793 106.675 50.5083 106.997 50.317C107.319 50.1257 107.692 50.03 108.117 50.03C108.546 50.03 108.92 50.1257 109.237 50.317C109.559 50.5083 109.806 50.793 109.979 51.171C110.156 51.5443 110.245 52.0063 110.245 52.557C110.245 53.1077 110.156 53.572 109.979 53.95C109.806 54.3233 109.559 54.6057 109.237 54.797C108.92 54.9883 108.546 55.084 108.117 55.084ZM108.117 54.265C108.355 54.265 108.558 54.2113 108.726 54.104C108.899 53.9967 109.032 53.845 109.125 53.649C109.218 53.4483 109.265 53.2103 109.265 52.935V52.179C109.265 51.899 109.218 51.661 109.125 51.465C109.032 51.269 108.899 51.1173 108.726 51.01C108.558 50.9027 108.355 50.849 108.117 50.849C107.888 50.849 107.688 50.9027 107.515 51.01C107.342 51.1173 107.207 51.269 107.109 51.465C107.016 51.661 106.969 51.899 106.969 52.179V52.935C106.969 53.2103 107.016 53.4483 107.109 53.649C107.207 53.845 107.342 53.9967 107.515 54.104C107.688 54.2113 107.888 54.265 108.117 54.265ZM114.15 55L112.757 52.788L112.106 53.558V55H111.182V50.114H112.106V51.605V52.522H112.141L112.834 51.605L114.045 50.114H115.109L113.408 52.151L115.249 55H114.15Z" fill="#B2B2B2"/>
</svg>
