<?xml version="1.0" encoding="UTF-8" standalone="no"?>
<!-- Created with Inkscape (http://www.inkscape.org/) -->

<svg
   width="512"
   height="512"
   viewBox="0 0 512 512"
   version="1.1"
   id="svg1"
   xml:space="preserve"
   inkscape:version="1.4.3 (0d15f75042, 2025-12-25)"
   sodipodi:docname="lockscreen.svg"
   inkscape:export-filename="lockscreen.png"
   inkscape:export-xdpi="96"
   inkscape:export-ydpi="96"
   xmlns:inkscape="http://www.inkscape.org/namespaces/inkscape"
   xmlns:sodipodi="http://sodipodi.sourceforge.net/DTD/sodipodi-0.dtd"
   xmlns="http://www.w3.org/2000/svg"
   xmlns:svg="http://www.w3.org/2000/svg"><sodipodi:namedview
     id="namedview1"
     pagecolor="#ffffff"
     bordercolor="#000000"
     borderopacity="0.25"
     inkscape:showpageshadow="2"
     inkscape:pageopacity="0.0"
     inkscape:pagecheckerboard="0"
     inkscape:deskcolor="#d1d1d1"
     inkscape:document-units="px"
     inkscape:zoom="0.83518558"
     inkscape:cx="341.24152"
     inkscape:cy="156.2527"
     inkscape:window-width="1646"
     inkscape:window-height="995"
     inkscape:window-x="0"
     inkscape:window-y="0"
     inkscape:window-maximized="1"
     inkscape:current-layer="layer1" /><defs
     id="defs1" /><g
     inkscape:label="Capa 1"
     inkscape:groupmode="layer"
     id="layer1"><circle
       style="fill:#3b80ee;fill-opacity:1;stroke:none;stroke-width:0"
       id="path1"
       cx="255.51151"
       cy="257.65875"
       r="252" /><path
       d="m 223.99673,170.4344 v 32.64452 h 65.28904 V 170.4344 c 0,-18.00549 -14.63902,-32.64452 -32.64452,-32.64452 -18.00549,0 -32.64452,14.63903 -32.64452,32.64452 z m -32.64452,32.64452 V 170.4344 c 0,-36.062 29.22704,-65.28904 65.28904,-65.28904 36.062,0 65.28905,29.22704 65.28905,65.28904 v 32.64452 c 18.00549,0 32.64452,14.63903 32.64452,32.64453 v 114.25583 c 0,18.00549 -14.63903,32.64452 -32.64452,32.64452 H 191.35221 c -18.0055,0 -32.64453,-14.63903 -32.64453,-32.64452 V 235.72345 c 0,-18.0055 14.63903,-32.64453 32.64453,-32.64453 z"
       id="path1-4"
       style="fill:#ffffff;stroke-width:0.510071" /></g></svg>
