<?xml version="1.0" encoding="UTF-8" standalone="no"?>
<!-- Created with Inkscape (http://www.inkscape.org/) -->

<svg
   width="512"
   height="512"
   viewBox="0 0 512 512"
   version="1.1"
   id="svg1"
   xml:space="preserve"
   inkscape:version="1.4.3 (0d15f75042, 2025-12-25)"
   sodipodi:docname="notification.svg"
   inkscape:export-filename="notification.png"
   inkscape:export-xdpi="96"
   inkscape:export-ydpi="96"
   xmlns:inkscape="http://www.inkscape.org/namespaces/inkscape"
   xmlns:sodipodi="http://sodipodi.sourceforge.net/DTD/sodipodi-0.dtd"
   xmlns="http://www.w3.org/2000/svg"
   xmlns:svg="http://www.w3.org/2000/svg"><sodipodi:namedview
     id="namedview1"
     pagecolor="#ffffff"
     bordercolor="#000000"
     borderopacity="0.25"
     inkscape:showpageshadow="2"
     inkscape:pageopacity="0.0"
     inkscape:pagecheckerboard="0"
     inkscape:deskcolor="#d1d1d1"
     inkscape:document-units="px"
     inkscape:zoom="1.1026861"
     inkscape:cx="196.79217"
     inkscape:cy="277.95761"
     inkscape:window-width="1646"
     inkscape:window-height="995"
     inkscape:window-x="0"
     inkscape:window-y="0"
     inkscape:window-maximized="1"
     inkscape:current-layer="layer1" /><defs
     id="defs1" /><g
     inkscape:label="Capa 1"
     inkscape:groupmode="layer"
     id="layer1"><circle
       style="fill:#ff9421;fill-opacity:1;stroke:none;stroke-width:0"
       id="path1"
       cx="257.27615"
       cy="257.34311"
       r="252" /><path
       d="m 263.64184,114.22201 c -9.29794,0 -16.80982,7.51189 -16.80982,16.80982 v 1.68098 c -38.34741,7.77454 -67.23929,41.70937 -67.23929,82.36812 v 11.39916 c 0,25.26726 -8.61503,49.7991 -24.37424,69.55064 l -5.148,6.40874 c -2.67907,3.30943 -4.0974,7.40683 -4.0974,11.66181 0,10.29602 8.35238,18.6484 18.6484,18.6484 h 197.98817 c 10.29601,0 18.64839,-8.35238 18.64839,-18.6484 0,-4.25498 -1.41833,-8.35238 -4.09739,-11.66181 l -5.14801,-6.40874 c -15.70668,-19.75154 -24.32171,-44.28338 -24.32171,-69.55064 v -11.39916 c 0,-40.65875 -28.89188,-74.59358 -67.23928,-82.36812 v -1.68098 c 0,-9.29793 -7.51189,-16.80982 -16.80982,-16.80982 z m -32.56903,243.7424 c 3.72968,14.49847 16.91488,25.21473 32.56903,25.21473 15.65414,0 28.83934,-10.71626 32.56902,-25.21473 z"
       id="path1-5"
       style="fill:#ffffff;stroke-width:0.525307" /></g></svg>
