<?xml version="1.0" encoding="UTF-8" standalone="no"?>
<!-- Created with Inkscape (http://www.inkscape.org/) -->

<svg
   width="512"
   height="512"
   viewBox="0 0 512 512"
   version="1.1"
   id="svg1"
   xml:space="preserve"
   inkscape:version="1.4.3 (0d15f75042, 2025-12-25)"
   sodipodi:docname="routines.svg"
   inkscape:export-filename="routines.png"
   inkscape:export-xdpi="96"
   inkscape:export-ydpi="96"
   xmlns:inkscape="http://www.inkscape.org/namespaces/inkscape"
   xmlns:sodipodi="http://sodipodi.sourceforge.net/DTD/sodipodi-0.dtd"
   xmlns="http://www.w3.org/2000/svg"
   xmlns:svg="http://www.w3.org/2000/svg"><sodipodi:namedview
     id="namedview1"
     pagecolor="#ffffff"
     bordercolor="#000000"
     borderopacity="0.25"
     inkscape:showpageshadow="2"
     inkscape:pageopacity="0.0"
     inkscape:pagecheckerboard="0"
     inkscape:deskcolor="#d1d1d1"
     inkscape:document-units="px"
     inkscape:zoom="0.53388293"
     inkscape:cx="301.56424"
     inkscape:cy="216.33956"
     inkscape:window-width="1646"
     inkscape:window-height="995"
     inkscape:window-x="0"
     inkscape:window-y="0"
     inkscape:window-maximized="1"
     inkscape:current-layer="layer1" /><defs
     id="defs1" /><g
     inkscape:label="Capa 1"
     inkscape:groupmode="layer"
     id="layer1"><circle
       style="fill:#947cff;stroke-width:0;fill-opacity:1;stroke:none"
       id="path1"
       cx="254.10168"
       cy="255.1257"
       r="252" /><path
       d="m 315.12495,203.14246 c 3.73134,2.71369 4.5663,7.93234 1.85262,11.66365 l -66.79856,91.84803 c -1.43512,1.98307 -3.65304,3.20945 -6.10579,3.41821 -2.45278,0.20874 -4.82726,-0.70451 -6.54941,-2.42668 L 204.12454,274.2464 c -3.26167,-3.26164 -3.26167,-8.55857 0,-11.82023 3.26165,-3.26161 8.55855,-3.26161 11.8202,0 l 26.4846,26.4846 61.05804,-83.94179 c 2.71371,-3.73131 7.93234,-4.56631 11.66367,-1.85262 z"
       id="path1-0"
       style="fill:#ffffff;fill-opacity:1;stroke:none;stroke-width:0.260933;stroke-opacity:1" /><path
       id="path1-6"
       style="fill:#ffffff;fill-opacity:1;stroke:none;stroke-width:0.519457;stroke-opacity:1"
       d="m 334.92446,147.22309 c -27.30638,-20.30927 -62.36792,-30.20329 -98.70881,-24.86301 -7.92232,1.16418 -15.56143,2.99356 -22.88639,5.44361 -8.7049,2.91272 -13.44699,12.33451 -10.53428,21.03939 2.91272,8.7049 12.33609,13.4449 21.04096,10.53218 5.51965,-1.8506 11.25642,-3.21309 17.21633,-4.08888 54.51133,-8.01043 105.15579,29.65665 113.1662,84.16799 8.01044,54.51133 -29.65506,105.15367 -84.16641,113.16409 -50.29579,7.39096 -97.37221,-24.19097 -110.59177,-71.95957 l 17.40535,-3.24901 c 5.01504,-0.73695 9.0306,-1.95565 10.27844,-6.85397 1.24786,-4.89834 -11.8423,-18.95141 -15.09524,-22.79941 l -33.04248,-39.08697 c -4.46023,-5.27614 -14.1798,-3.52671 -17.44242,2.56318 l -30.468651,56.87154 c -2.3795,4.4415 -3.66759,9.51009 -1.06331,13.84233 2.6043,4.33228 8.04169,6.86505 13.056741,6.12809 l 23.2607,-2.58794 c 16.07677,65.94872 79.99104,110.05369 148.52997,99.98192 72.68179,-10.68058 122.86129,-78.23536 112.22241,-150.88615 -5.31946,-36.32539 -24.87096,-67.05013 -52.17734,-87.35941 z"
       inkscape:transform-center-x="24.449842"
       inkscape:transform-center-y="-2.7177743"
       sodipodi:nodetypes="sscsccssccssssssccsss" /><circle
       style="fill:#ffffff;fill-opacity:1;stroke:none;stroke-width:6.76845;stroke-miterlimit:0;stroke-opacity:1"
       id="path2"
       cx="184.72023"
       cy="162.22661"
       r="15.748708" /><circle
       style="fill:#ffffff;fill-opacity:1;stroke:none;stroke-width:6.76845;stroke-miterlimit:0;stroke-opacity:1"
       id="path2-2"
       cx="160.17477"
       cy="192.65883"
       r="15.748708" /></g></svg>
