<?xml version="1.0" encoding="UTF-8" standalone="no"?>
<!-- Created with Inkscape (http://www.inkscape.org/) -->

<svg
   width="512"
   height="512"
   viewBox="0 0 512 512"
   version="1.1"
   id="svg1"
   xml:space="preserve"
   inkscape:version="1.4.3 (0d15f75042, 2025-12-25)"
   sodipodi:docname="settings.svg"
   inkscape:export-filename="settings.png"
   inkscape:export-xdpi="96"
   inkscape:export-ydpi="96"
   xmlns:inkscape="http://www.inkscape.org/namespaces/inkscape"
   xmlns:sodipodi="http://sodipodi.sourceforge.net/DTD/sodipodi-0.dtd"
   xmlns="http://www.w3.org/2000/svg"
   xmlns:svg="http://www.w3.org/2000/svg"><sodipodi:namedview
     id="namedview1"
     pagecolor="#ffffff"
     bordercolor="#000000"
     borderopacity="0.25"
     inkscape:showpageshadow="2"
     inkscape:pageopacity="0.0"
     inkscape:pagecheckerboard="0"
     inkscape:deskcolor="#d1d1d1"
     inkscape:document-units="px"
     inkscape:zoom="0.74636785"
     inkscape:cx="296.10064"
     inkscape:cy="237.81839"
     inkscape:window-width="1646"
     inkscape:window-height="995"
     inkscape:window-x="0"
     inkscape:window-y="0"
     inkscape:window-maximized="1"
     inkscape:current-layer="layer1" /><defs
     id="defs1" /><g
     inkscape:label="Capa 1"
     inkscape:groupmode="layer"
     id="layer1"><path
       d="m 314.25783,50.008807 c 8.48758,-9.60739 22.66029,-11.913473 33.83514,-5.461666 l 43.96425,25.38277 c 11.17485,6.451805 16.26408,19.878769 12.18762,32.032919 l -19.05204,57.61786 c 7.81937,10.39601 14.25552,21.65985 19.21518,33.4436 l 59.39612,12.23672 c 12.62412,2.58334 21.69334,13.70095 21.67787,26.63134 l -0.005,50.77412 c -0.0155,12.93038 -9.04652,23.98846 -21.71472,26.575 l -59.30497,12.22415 c -2.47935,5.82241 -5.41117,11.57961 -8.67953,17.24056 -3.26834,5.66095 -6.86183,11.03614 -10.59099,16.13697 l 19.09713,57.58766 c 4.09408,12.26426 -1.08293,25.64548 -12.15727,32.093 l -43.96921,25.39135 c -11.14787,6.40505 -25.35304,4.18321 -33.90234,-5.45791 l -40.29536,-45.32021 c -12.75839,1.55425 -25.68878,1.5388 -38.57062,0.0809 l -40.25653,45.2774 c -8.60355,9.63846 -22.73379,11.87103 -33.83514,5.46166 l -43.96423,-25.38276 c -11.17487,-6.4518 -16.2641,-19.87876 -12.18764,-32.03292 l 19.08312,-57.50189 c -7.81939,-10.39602 -14.18201,-21.6174 -19.21517,-33.4436 L 45.396862,309.23185 C 32.772741,306.64852 23.703538,295.5309 23.718996,282.60053 l 0.0049,-50.77413 c 0.01546,-12.93038 9.046518,-23.98847 21.714722,-26.57502 l 59.420932,-12.25522 c 2.47935,-5.82241 5.41118,-11.57961 8.67952,-17.24056 3.26837,-5.66095 6.86185,-11.03614 10.59102,-16.13697 l -19.09714,-57.58764 c -4.0941,-12.264244 1.08292,-25.64549 12.15726,-32.092988 L 161.15944,44.54664 c 11.19031,-6.478584 25.35303,-4.183221 33.90233,5.457918 l 40.29538,45.320182 c 12.75836,-1.554235 25.68875,-1.538776 38.57059,-0.08098 z m -93.593,266.015903 c 32.58019,18.61414 74.06456,7.37415 92.6787,-25.20605 18.61414,-32.5802 7.37414,-74.06457 -25.20605,-92.67871 -32.58021,-18.61414 -74.06457,-7.37414 -92.67871,25.20605 -18.61413,32.58021 -7.37415,74.06456 25.20606,92.67871 z"
       id="path1"
       style="fill:#a3a3a3;fill-opacity:1;stroke-width:0.848922" /><circle
       style="fill:#6699ff;fill-opacity:1;stroke-linejoin:round;stroke-miterlimit:0"
       id="path2"
       cx="255.94023"
       cy="255.20374"
       r="54.87064" /></g></svg>
