<?xml version="1.0" encoding="UTF-8" standalone="no"?>
<!-- Created with Inkscape (http://www.inkscape.org/) -->

<svg
   width="512"
   height="512"
   viewBox="0 0 512 512"
   version="1.1"
   id="svg1"
   sodipodi:docname="settings.svg"
   inkscape:version="1.4.3 (0d15f75042, 2025-12-25)"
   inkscape:export-filename="settings.png"
   inkscape:export-xdpi="96"
   inkscape:export-ydpi="96"
   xmlns:inkscape="http://www.inkscape.org/namespaces/inkscape"
   xmlns:sodipodi="http://sodipodi.sourceforge.net/DTD/sodipodi-0.dtd"
   xmlns:xlink="http://www.w3.org/1999/xlink"
   xmlns="http://www.w3.org/2000/svg"
   xmlns:svg="http://www.w3.org/2000/svg">
  <sodipodi:namedview
     id="namedview1"
     pagecolor="#ffffff"
     bordercolor="#000000"
     borderopacity="0.25"
     inkscape:showpageshadow="2"
     inkscape:pageopacity="0.0"
     inkscape:pagecheckerboard="0"
     inkscape:deskcolor="#d1d1d1"
     inkscape:document-units="px"
     inkscape:zoom="1.0822559"
     inkscape:cx="246.7069"
     inkscape:cy="226.84099"
     inkscape:window-width="1646"
     inkscape:window-height="995"
     inkscape:window-x="0"
     inkscape:window-y="0"
     inkscape:window-maximized="1"
     inkscape:current-layer="layer1" />
  <defs
     id="defs1">
    <linearGradient
       id="linearGradient5"
       inkscape:collect="always">
      <stop
         style="stop-color:#3e91ff;stop-opacity:1;"
         offset="0"
         id="stop5" />
      <stop
         style="stop-color:#76aeff;stop-opacity:1;"
         offset="1"
         id="stop6" />
    </linearGradient>
    <linearGradient
       id="linearGradient3"
       inkscape:collect="always">
      <stop
         style="stop-color:#ffffff;stop-opacity:1;"
         offset="0"
         id="stop3" />
      <stop
         style="stop-color:#d5d5d5;stop-opacity:1;"
         offset="1"
         id="stop4" />
    </linearGradient>
    <inkscape:path-effect
       effect="fillet_chamfer"
       id="path-effect2"
       is_visible="true"
       lpeversion="1"
       nodesatellites_param="F,0,0,1,0,5,0,1 @ F,0,0,1,0,5,0,1 @ F,0,0,1,0,5,0,1 @ F,0,0,1,0,5,0,1 @ F,0,0,1,0,5,0,1 @ F,0,0,1,0,5,0,1 @ F,0,0,1,0,5,0,1 @ F,0,0,1,0,5,0,1"
       radius="5"
       unit="px"
       method="auto"
       mode="F"
       chamfer_steps="1"
       flexible="false"
       use_knot_distance="true"
       apply_no_radius="true"
       apply_with_radius="true"
       only_selected="false"
       hide_knots="false" />
    <inkscape:path-effect
       effect="fillet_chamfer"
       id="path-effect2-4"
       is_visible="true"
       lpeversion="1"
       nodesatellites_param="F,0,0,1,0,5,0,1 @ F,0,0,1,0,5,0,1 @ F,0,0,1,0,5,0,1 @ F,0,0,1,0,5,0,1 @ F,0,0,1,0,5,0,1 @ F,0,0,1,0,5,0,1 @ F,0,0,1,0,5,0,1 @ F,0,0,1,0,5,0,1"
       radius="5"
       unit="px"
       method="auto"
       mode="F"
       chamfer_steps="1"
       flexible="false"
       use_knot_distance="true"
       apply_no_radius="true"
       apply_with_radius="true"
       only_selected="false"
       hide_knots="false" />
    <inkscape:path-effect
       effect="fillet_chamfer"
       id="path-effect2-4-2"
       is_visible="true"
       lpeversion="1"
       nodesatellites_param="F,0,0,1,0,5,0,1 @ F,0,0,1,0,5,0,1 @ F,0,0,1,0,5,0,1 @ F,0,0,1,0,5,0,1 @ F,0,0,1,0,5,0,1 @ F,0,0,1,0,5,0,1 @ F,0,0,1,0,5,0,1 @ F,0,0,1,0,5,0,1"
       radius="5"
       unit="px"
       method="auto"
       mode="F"
       chamfer_steps="1"
       flexible="false"
       use_knot_distance="true"
       apply_no_radius="true"
       apply_with_radius="true"
       only_selected="false"
       hide_knots="false" />
    <inkscape:path-effect
       effect="fillet_chamfer"
       id="path-effect2-4-4"
       is_visible="true"
       lpeversion="1"
       nodesatellites_param="F,0,0,1,0,5,0,1 @ F,0,0,1,0,5,0,1 @ F,0,0,1,0,5,0,1 @ F,0,0,1,0,5,0,1 @ F,0,0,1,0,5,0,1 @ F,0,0,1,0,5,0,1 @ F,0,0,1,0,5,0,1 @ F,0,0,1,0,5,0,1"
       radius="5"
       unit="px"
       method="auto"
       mode="F"
       chamfer_steps="1"
       flexible="false"
       use_knot_distance="true"
       apply_no_radius="true"
       apply_with_radius="true"
       only_selected="false"
       hide_knots="false" />
    <inkscape:path-effect
       effect="fillet_chamfer"
       id="path-effect2-4-4-7"
       is_visible="true"
       lpeversion="1"
       nodesatellites_param="F,0,0,1,0,5,0,1 @ F,0,0,1,0,5,0,1 @ F,0,0,1,0,5,0,1 @ F,0,0,1,0,5,0,1 @ F,0,0,1,0,5,0,1 @ F,0,0,1,0,5,0,1 @ F,0,0,1,0,5,0,1 @ F,0,0,1,0,5,0,1"
       radius="5"
       unit="px"
       method="auto"
       mode="F"
       chamfer_steps="1"
       flexible="false"
       use_knot_distance="true"
       apply_no_radius="true"
       apply_with_radius="true"
       only_selected="false"
       hide_knots="false" />
    <inkscape:path-effect
       effect="fillet_chamfer"
       id="path-effect2-4-4-7-2"
       is_visible="true"
       lpeversion="1"
       nodesatellites_param="F,0,0,1,0,5,0,1 @ F,0,0,1,0,5,0,1 @ F,0,0,1,0,5,0,1 @ F,0,0,1,0,5,0,1 @ F,0,0,1,0,5,0,1 @ F,0,0,1,0,5,0,1 @ F,0,0,1,0,5,0,1 @ F,0,0,1,0,5,0,1"
       radius="5"
       unit="px"
       method="auto"
       mode="F"
       chamfer_steps="1"
       flexible="false"
       use_knot_distance="true"
       apply_no_radius="true"
       apply_with_radius="true"
       only_selected="false"
       hide_knots="false" />
    <inkscape:path-effect
       effect="fillet_chamfer"
       id="path-effect2-4-0"
       is_visible="true"
       lpeversion="1"
       nodesatellites_param="F,0,0,1,0,5,0,1 @ F,0,0,1,0,5,0,1 @ F,0,0,1,0,5,0,1 @ F,0,0,1,0,5,0,1 @ F,0,0,1,0,5,0,1 @ F,0,0,1,0,5,0,1 @ F,0,0,1,0,5,0,1 @ F,0,0,1,0,5,0,1"
       radius="5"
       unit="px"
       method="auto"
       mode="F"
       chamfer_steps="1"
       flexible="false"
       use_knot_distance="true"
       apply_no_radius="true"
       apply_with_radius="true"
       only_selected="false"
       hide_knots="false" />
    <linearGradient
       inkscape:collect="always"
       xlink:href="#linearGradient3"
       id="linearGradient4"
       x1="309.17294"
       y1="297.50027"
       x2="208.05518"
       y2="212.65239"
       gradientUnits="userSpaceOnUse" />
    <linearGradient
       inkscape:collect="always"
       xlink:href="#linearGradient5"
       id="linearGradient6"
       x1="292.65213"
       y1="295.4039"
       x2="223.59105"
       y2="213.1001"
       gradientUnits="userSpaceOnUse"
       gradientTransform="matrix(0.8477234,0,0,0.8477234,39.742657,41.031766)" />
  </defs>
  <g
     inkscape:label="Capa 1"
     inkscape:groupmode="layer"
     id="layer1">
    <g
       id="g29"
       transform="translate(-5.5439754,-8.3159631)">
      <path
         d="m 258.55859,211.02734 a 45.5397,45.539509 0 0 0 -45.53906,45.53907 45.5397,45.539509 0 0 0 45.53906,45.54101 45.5397,45.539509 0 0 0 45.53907,-45.54101 45.5397,45.539509 0 0 0 -45.53907,-45.53907 z"
         style="fill:url(#linearGradient6);stroke-width:0;stroke-miterlimit:0"
         id="path29" />
      <path
         d="m 258.61328,189.07617 a 66,66 0 0 0 -66,66 66,66 0 0 0 66,66 66,66 0 0 0 66,-66 66,66 0 0 0 -66,-66 z m -0.0547,21.95117 a 45.5397,45.539509 0 0 1 45.53907,45.53907 45.5397,45.539509 0 0 1 -45.53907,45.54101 45.5397,45.539509 0 0 1 -45.53906,-45.54101 45.5397,45.539509 0 0 1 45.53906,-45.53907 z"
         style="fill:url(#linearGradient4);stroke-width:0;stroke-miterlimit:0"
         id="path28" />
      <path
         d="m 333.60937,131.06445 a 43.513462,43.513462 0 0 1 -17.91796,3.86133 43.513462,43.513462 0 0 1 -38.60157,-23.43359 145.94388,143.09471 0 0 0 -19.30859,-1.25781 145.94388,143.09471 0 0 0 -16.28711,0.89453 43.513462,43.513462 0 0 1 -38.89453,24.0039 43.513462,43.513462 0 0 1 -19.61914,-4.67383 145.94388,143.09471 0 0 0 -18.19531,12.58789 43.513462,43.513462 0 0 1 2.72656,15.16211 43.513462,43.513462 0 0 1 -43.51367,43.51368 43.513462,43.513462 0 0 1 -2.31446,-0.0625 145.94388,143.09471 0 0 0 -6.13086,19.59179 43.513462,43.513462 0 0 1 17.88868,35.16992 43.513462,43.513462 0 0 1 -16.56836,34.16797 145.94388,143.09471 0 0 0 7.06836,19.79688 43.513462,43.513462 0 0 1 38.35742,43.20703 43.513462,43.513462 0 0 1 -0.63672,7.41406 145.94388,143.09471 0 0 0 20.1582,14.50586 43.513462,43.513462 0 0 1 20.99024,-5.39648 43.513462,43.513462 0 0 1 39.61523,25.51367 145.94388,143.09471 0 0 0 15.35547,0.79297 145.94388,143.09471 0 0 0 20.08984,-1.36133 43.513462,43.513462 0 0 1 38.03125,-22.37109 43.513462,43.513462 0 0 1 16.86524,3.40039 145.94388,143.09471 0 0 0 21.99023,-15.82618 43.513462,43.513462 0 0 1 -0.95898,-9.08398 43.513462,43.513462 0 0 1 38.89258,-43.26758 145.94388,143.09471 0 0 0 6.43359,-18.9375 43.513462,43.513462 0 0 1 -16.58984,-34.18359 43.513462,43.513462 0 0 1 17.20898,-34.66211 145.94388,143.09471 0 0 0 -6.11523,-19.10156 43.513462,43.513462 0 0 1 -42.00391,-43.48828 43.513462,43.513462 0 0 1 1.7793,-12.3125 145.94388,143.09471 0 0 0 -19.79493,-14.16407 z m -74.99609,58.01172 a 66,66 0 0 1 66,66 66,66 0 0 1 -66,66 66,66 0 0 1 -66,-66 66,66 0 0 1 66,-66 z"
         style="fill:#8c8c8c;fill-opacity:0.962555;stroke-width:0;stroke-miterlimit:0"
         id="path8" />
    </g>
  </g>
</svg>
